<?xml version="1.0" encoding="UTF-8" standalone="no"?>
<svg
   xmlns:dc="http://purl.org/dc/elements/1.1/"
   xmlns:cc="http://creativecommons.org/ns#"
   xmlns:rdf="http://www.w3.org/1999/02/22-rdf-syntax-ns#"
   xmlns:svg="http://www.w3.org/2000/svg"
   xmlns="http://www.w3.org/2000/svg"
   xmlns:sodipodi="http://sodipodi.sourceforge.net/DTD/sodipodi-0.dtd"
   xmlns:inkscape="http://www.inkscape.org/namespaces/inkscape"
   viewBox="0 0 128 128"
   version="1.1"
   id="svg4"
   sodipodi:docname="bootstrap-plain-wordmark.svg"
   inkscape:version="0.92.3 (2405546, 2018-03-11)">
  <metadata
     id="metadata10">
    <rdf:RDF>
      <cc:Work
         rdf:about="">
        <dc:format>image/svg+xml</dc:format>
        <dc:type
           rdf:resource="http://purl.org/dc/dcmitype/StillImage" />
      </cc:Work>
    </rdf:RDF>
  </metadata>
  <defs
     id="defs8" />
  <sodipodi:namedview
     pagecolor="#ffffff"
     bordercolor="#666666"
     borderopacity="1"
     objecttolerance="10"
     gridtolerance="10"
     guidetolerance="10"
     inkscape:pageopacity="0"
     inkscape:pageshadow="2"
     inkscape:window-width="1920"
     inkscape:window-height="1017"
     id="namedview6"
     showgrid="false"
     inkscape:zoom="1.84375"
     inkscape:cx="64"
     inkscape:cy="64"
     inkscape:window-x="-8"
     inkscape:window-y="-8"
     inkscape:window-maximized="1"
     inkscape:current-layer="svg4" />
  <path
     id="path20"
     d="M 112.067,118.879 H 113 c 0.872,0 1.524,-0.172 1.957,-0.517 0.433,-0.345 0.649,-0.846 0.649,-1.504 0,-0.665 -0.182,-1.156 -0.544,-1.473 -0.363,-0.317 -0.932,-0.476 -1.706,-0.476 h -1.29 v 3.97 z m 6.402,-2.122 c 0,1.439 -0.45,2.54 -1.349,3.301 -0.899,0.763 -2.178,1.144 -3.837,1.144 h -1.216 v 4.756 h -2.835 v -13.372 h 4.271 c 1.622,0 2.855,0.349 3.7,1.047 0.844,0.699 1.266,1.74 1.266,3.124 z m -15.622,3.64 c -0.896,-2.884 -1.401,-4.515 -1.514,-4.893 -0.113,-0.378 -0.193,-0.677 -0.242,-0.896 -0.201,0.78 -0.777,2.71 -1.729,5.789 z m 1.647,5.561 -0.97,-3.183 h -4.875 l -0.97,3.183 h -3.055 l 4.719,-13.426 h 3.466 l 4.738,13.426 z m -17.716,-7.436 h 0.915 c 0.896,0 1.558,-0.149 1.985,-0.448 0.427,-0.299 0.64,-0.769 0.64,-1.409 0,-0.634 -0.218,-1.085 -0.654,-1.354 -0.436,-0.268 -1.111,-0.402 -2.026,-0.402 h -0.86 z m 0,2.305 v 5.131 h -2.835 v -13.372 h 3.896 c 1.817,0 3.161,0.331 4.033,0.992 0.872,0.662 1.308,1.667 1.308,3.014 0,0.787 -0.216,1.486 -0.649,2.099 -0.433,0.613 -1.046,1.093 -1.838,1.44 2.012,3.006 3.323,4.948 3.933,5.826 H 91.48 l -3.192,-5.131 h -1.51 z m -8.524,5.131 h -2.835 v -11.012 h -3.631 v -2.36 h 10.097 v 2.36 h -3.631 z m -7.583,-3.713 c 0,1.208 -0.434,2.159 -1.303,2.854 -0.869,0.695 -2.078,1.043 -3.626,1.043 -1.427,0 -2.689,-0.269 -3.786,-0.805 v -2.634 c 0.902,0.402 1.666,0.686 2.291,0.851 0.625,0.165 1.196,0.247 1.715,0.247 0.622,0 1.099,-0.119 1.431,-0.356 0.333,-0.238 0.499,-0.591 0.499,-1.061 0,-0.262 -0.073,-0.495 -0.219,-0.7 -0.146,-0.204 -0.361,-0.401 -0.645,-0.59 -0.284,-0.189 -0.861,-0.491 -1.733,-0.905 -0.817,-0.384 -1.43,-0.753 -1.838,-1.107 -0.409,-0.354 -0.735,-0.765 -0.979,-1.234 -0.244,-0.47 -0.366,-1.019 -0.366,-1.646 0,-1.183 0.401,-2.113 1.203,-2.79 0.802,-0.677 1.91,-1.015 3.325,-1.015 0.695,0 1.358,0.082 1.989,0.247 0.631,0.165 1.291,0.396 1.98,0.695 l -0.915,2.204 c -0.713,-0.292 -1.303,-0.497 -1.77,-0.613 -0.467,-0.116 -0.925,-0.174 -1.376,-0.174 -0.537,0 -0.948,0.125 -1.235,0.375 -0.287,0.25 -0.43,0.576 -0.43,0.979 0,0.25 0.058,0.468 0.174,0.654 0.116,0.186 0.3,0.366 0.553,0.54 0.253,0.174 0.852,0.486 1.797,0.938 1.25,0.598 2.107,1.197 2.57,1.797 0.463,0.6 0.694,1.334 0.694,2.206 z m -13.581,3.713 h -2.835 v -11.012 h -3.631 v -2.36 h 10.097 v 2.36 H 57.09 Z m -17.688,-6.704 c 0,1.494 0.283,2.619 0.851,3.375 0.567,0.756 1.414,1.134 2.542,1.134 2.262,0 3.393,-1.503 3.393,-4.509 0,-3.012 -1.125,-4.518 -3.375,-4.518 -1.128,0 -1.979,0.379 -2.552,1.139 -0.573,0.76 -0.859,1.885 -0.859,3.379 z m 9.759,0 c 0,2.213 -0.549,3.915 -1.646,5.104 -1.097,1.189 -2.67,1.784 -4.719,1.784 -2.049,0 -3.622,-0.595 -4.719,-1.784 -1.098,-1.189 -1.646,-2.896 -1.646,-5.122 0,-2.226 0.55,-3.925 1.651,-5.099 1.101,-1.174 2.678,-1.761 4.733,-1.761 2.055,0 3.626,0.592 4.715,1.774 1.086,1.183 1.631,2.885 1.631,5.104 z m -24.667,0 c 0,1.494 0.283,2.619 0.851,3.375 0.567,0.756 1.414,1.134 2.542,1.134 2.262,0 3.393,-1.503 3.393,-4.509 0,-3.012 -1.125,-4.518 -3.375,-4.518 -1.128,0 -1.979,0.379 -2.552,1.139 -0.573,0.76 -0.859,1.885 -0.859,3.379 z m 9.758,0 c 0,2.213 -0.549,3.915 -1.646,5.104 -1.097,1.189 -2.67,1.784 -4.719,1.784 -2.049,0 -3.622,-0.595 -4.719,-1.784 -1.098,-1.189 -1.646,-2.896 -1.646,-5.122 0,-2.226 0.55,-3.925 1.651,-5.099 1.101,-1.174 2.678,-1.761 4.733,-1.761 2.055,0 3.626,0.592 4.715,1.774 1.087,1.183 1.631,2.885 1.631,5.104 z m -21.886,0.878 v 3.485 h 1.848 c 0.78,0 1.356,-0.149 1.729,-0.448 0.373,-0.299 0.558,-0.756 0.558,-1.372 0,-1.109 -0.793,-1.665 -2.378,-1.665 z m 0,-2.25 h 1.646 c 0.768,0 1.325,-0.119 1.669,-0.356 0.345,-0.238 0.517,-0.631 0.517,-1.18 0,-0.512 -0.187,-0.879 -0.562,-1.102 -0.375,-0.223 -0.968,-0.334 -1.779,-0.334 h -1.491 z m -2.835,-5.296 h 4.161 c 1.896,0 3.273,0.27 4.129,0.81 0.857,0.54 1.285,1.398 1.285,2.575 0,0.799 -0.188,1.454 -0.563,1.966 -0.375,0.512 -0.874,0.82 -1.496,0.924 v 0.091 c 0.848,0.189 1.459,0.543 1.834,1.061 0.375,0.518 0.563,1.207 0.563,2.067 0,1.22 -0.44,2.171 -1.322,2.854 -0.881,0.683 -2.078,1.024 -3.59,1.024 H 9.531 Z"
     style="fill:#ffffff" />
  <path
     style="fill:#5B4282"
     id="path2"
     d="m 86.57,73.27 c -1.157,2.356 -2.589,4.173 -4.292,5.451 -1.704,1.277 -3.841,2.446 -6.41,3.098 C 73.299,82.472 70.151,83 66.424,83 H 44 V 24 h 22.065 c 4.473,0 8.059,0.62 10.761,1.804 2.703,1.185 4.818,3.021 6.351,5.483 1.53,2.463 2.296,5.046 2.296,7.735 0,2.502 -0.68,4.861 -2.036,7.071 -1.358,2.21 -3.408,3.995 -6.15,5.352 3.54,1.038 6.263,2.811 8.166,5.313 1.903,2.503 2.855,5.458 2.855,8.866 -0.001,2.742 -0.579,5.291 -1.738,7.646 z M 117,16.126 C 117,8.324 110.675,2 102.873,2 H 25.127 C 17.325,2 11,8.324 11,16.126 V 93.874 C 11,101.676 17.325,108 25.127,108 h 77.746 C 110.675,108 117,101.676 117,93.874 Z M 71.895,48.147 c 1.97,-0.586 3.455,-1.646 4.452,-3.003 0.999,-1.357 1.498,-3.103 1.498,-5.154 0,-1.943 -0.466,-3.675 -1.398,-5.154 C 75.515,33.358 74.184,32.355 72.455,31.809 70.723,31.265 67.755,31 63.549,31 H 52 v 18 h 12.507 c 3.435,0 5.897,-0.399 7.388,-0.853 z m 2.056,8.612 C 71.968,56.106 69.113,56 65.386,56 H 52 v 20 h 14.424 c 2.502,0 4.259,-0.249 5.271,-0.437 1.783,-0.318 3.274,-0.93 4.472,-1.676 1.198,-0.744 2.183,-1.869 2.955,-3.293 0.771,-1.424 1.158,-3.087 1.158,-4.951 0,-2.184 -0.559,-3.98 -1.677,-5.59 -1.117,-1.611 -2.668,-2.642 -4.652,-3.294 z" />
</svg>
