<?xml version="1.0" encoding="UTF-8" standalone="no"?>
<svg
   xmlns:dc="http://purl.org/dc/elements/1.1/"
   xmlns:cc="http://creativecommons.org/ns#"
   xmlns:rdf="http://www.w3.org/1999/02/22-rdf-syntax-ns#"
   xmlns:svg="http://www.w3.org/2000/svg"
   xmlns="http://www.w3.org/2000/svg"
   xmlns:sodipodi="http://sodipodi.sourceforge.net/DTD/sodipodi-0.dtd"
   xmlns:inkscape="http://www.inkscape.org/namespaces/inkscape"
   viewBox="0 0 128 128"
   version="1.1"
   id="svg8"
   sodipodi:docname="git-original-wordmark.svg"
   inkscape:version="0.92.3 (2405546, 2018-03-11)">
  <metadata
     id="metadata14">
    <rdf:RDF>
      <cc:Work
         rdf:about="">
        <dc:format>image/svg+xml</dc:format>
        <dc:type
           rdf:resource="http://purl.org/dc/dcmitype/StillImage" />
      </cc:Work>
    </rdf:RDF>
  </metadata>
  <defs
     id="defs12" />
  <sodipodi:namedview
     pagecolor="#ffffff"
     bordercolor="#666666"
     borderopacity="1"
     objecttolerance="10"
     gridtolerance="10"
     guidetolerance="10"
     inkscape:pageopacity="0"
     inkscape:pageshadow="2"
     inkscape:window-width="1920"
     inkscape:window-height="1017"
     id="namedview10"
     showgrid="false"
     inkscape:zoom="1.84375"
     inkscape:cx="-28.474576"
     inkscape:cy="64"
     inkscape:window-x="-8"
     inkscape:window-y="-8"
     inkscape:window-maximized="1"
     inkscape:current-layer="svg8" />
  <path
     d="m 44.939373,93.642102 c -2.737,0 -4.775,1.344 -4.775,4.579 0,2.436998 1.343,4.128998 4.628,4.128998 2.784,0 4.676,-1.641 4.676,-4.229998 0,-2.934 -1.693,-4.478 -4.529,-4.478 z m -5.471,22.839998 c -0.648,0.795 -1.294,1.64 -1.294,2.637 0,1.989 2.536,2.587 6.021,2.587 2.885,0 6.816,-0.202 6.816,-2.885 0,-1.595 -1.892,-1.693 -4.281,-1.843 z m 14.725,-22.689998 c 0.895,1.145 1.842,2.737 1.842,5.026 0,5.521998 -4.329,8.755998 -10.597,8.755998 -1.594,0 -3.037,-0.198 -3.932,-0.447 l -1.642,2.637 4.875,0.297 c 8.608,0.549 13.682,0.798 13.682,7.413 0,5.723 -5.024,8.955 -13.682,8.955 -9.006,0 -12.438,-2.289 -12.438,-6.218 0,-2.24 0.996,-3.431 2.737,-5.076 -1.643,-0.694 -2.189,-1.937 -2.189,-3.281 0,-1.095 0.547,-2.09 1.443,-3.036 0.896,-0.944 1.891,-1.891 3.084,-2.985 -2.438,-1.194 -4.278,-3.781 -4.278,-7.463998 0,-5.721 3.781,-9.65 11.393,-9.65 2.14,0 3.435,0.197 4.578,0.498 h 9.703 v 4.228 z m 13.332,-9.04 c -2.837,0 -4.479,-1.643 -4.479,-4.48 0,-2.833 1.642,-4.377 4.479,-4.377 2.886,0 4.527,1.543 4.527,4.377 10e-4,2.837 -1.641,4.48 -4.527,4.48 z m -6.42,29.899998 v -3.929 l 2.539,-0.348 c 0.696,-0.1 0.795,-0.249 0.795,-0.997 V 94.751102 c 0,-0.546 -0.148,-0.896 -0.647,-1.044 l -2.687,-0.946 0.547,-4.028 h 10.301 V 109.3791 c 0,0.798 0.048,0.896 0.796,0.997 l 2.538,0.348 v 3.929 h -14.182 z m 33.857004,-1.93 c -2.141,1.043 -5.274004,1.99 -8.112004,1.99 -5.92,0 -8.158,-2.386 -8.158,-8.011 V 93.666102 c 0,-0.297 0,-0.497 -0.399,-0.497 h -3.482 v -4.428 c 4.38,-0.499 6.12,-2.688 6.667,-8.111 h 4.728 v 7.067 c 0,0.347 0,0.498 0.398,0.498 h 7.015004 v 4.975 H 86.206373 V 105.0601 c 0,2.935 0.697,4.079 3.383,4.079 1.395,0 2.836004,-0.347 4.030004,-0.795 z"
     id="path2"
     inkscape:connector-curvature="0"
     style="fill:#ffffff" />
  <path
     d="M 99.813775,35.512175 70.240075,5.9397749 c -1.7017,-1.703 -4.4642,-1.703 -6.1672,0 l -6.1412,6.1412001 7.7883,7.7896 c 1.8122,-0.611 3.887,-0.2015 5.33,1.2428 1.4508,1.4521 1.8577,3.5451 1.2311,5.3625 l 7.5075,7.5075 c 1.8148,-0.6253 3.9117,-0.221 5.3625,1.2311 2.028,2.0267 2.028,5.3118 0,7.3398 -2.0293,2.028 -5.3131,2.028 -7.3411,0 -1.5249,-1.5262 -1.9019,-3.7661 -1.1297,-5.6446 l -7.0018,-7.0018 -0.0013,18.4262 c 0.4953,0.2444 0.9607,0.5694 1.3728,0.9802 2.028,2.0267 2.028,5.3105 0,7.3411 -2.028,2.0267 -5.3144,2.0267 -7.3398,0 -2.028,-2.0306 -2.028,-5.3144 0,-7.3411 0.5018,-0.5005 1.0803,-0.8788 1.6991,-1.1323 v -18.5965 c -0.6188,-0.2522 -1.1973,-0.6292 -1.6991,-1.1323 -1.5366,-1.5353 -1.9058,-3.7882 -1.118,-5.6745 l -7.6778,-7.6804 -20.2787,20.2774 c -1.7043,1.7043 -1.7043,4.4668 0,6.1711 l 29.5737,29.5724 c 1.703,1.703 4.4642,1.703 6.1698,0 l 29.4346,-29.4372 c 1.704295,-1.703 1.704295,-4.4668 0,-6.1698 z"
     id="path4"
     inkscape:connector-curvature="0"
     style="fill:#f34f29;stroke-width:1.29999995" />
  <path
     fill="none"
     d="M1.58 37.928h124.84v52.143h-124.84z"
     id="path6" />
</svg>
