<?xml version="1.0"?>
<svg width="128" height="128" xmlns="http://www.w3.org/2000/svg" xmlns:svg="http://www.w3.org/2000/svg">
 <g class="layer">
  <title>Layer 1</title>
  <path clip-rule="evenodd" d="m88.395,70.763c2.874,-2.139 4.346,-4.844 5.031,-8.193c3.332,3.295 4.506,7.17 4.231,11.547c-0.373,5.936 -3.099,10.261 -8.728,12.585c-0.44,0.183 -0.838,0.663 -1.081,1.102c-2.638,4.78 -6.519,7.805 -11.988,8.67c-0.458,0.073 -0.916,0.333 -1.31,0.6c-6.504,4.389 -16.842,4.373 -23.379,-0.03c-0.429,-0.289 -0.956,-0.504 -1.465,-0.592c-4.917,-0.85 -8.654,-3.444 -11.181,-7.701c-0.736,-1.239 -1.59,-2.073 -2.918,-2.679c-9.492,-4.332 -9.33,-18.376 -3.392,-23.269c0.579,1.43 1.026,2.933 1.775,4.268c0.755,1.347 1.808,2.526 2.73,3.78l0.452,-0.124c0.156,-1.57 0.365,-3.136 0.455,-4.71c0.128,-2.215 0.225,-4.435 0.231,-6.654c0.008,-2.708 -1.005,-4.817 -3.563,-6.135c-1.873,-0.964 -3.743,-2.032 -5.373,-3.353c-3.984,-3.226 -3.884,-7.575 0.144,-10.695c0.967,-0.749 1.54,-1.604 1.653,-2.814c0.238,-2.55 0.639,-5.093 -1.188,-7.342c-0.506,-0.623 -0.761,-1.489 -1.003,-2.283c-1.179,-3.86 0.72,-6.938 4.719,-7.564c1.154,-0.181 1.781,-0.479 1.918,-1.822c0.246,-2.393 -0.268,-4.035 -2.471,-5.188c-1.754,-0.918 -3.71,-1.452 -5.647,-2.183c2.263,-3.252 5.628,-4.735 9.573,-4.972c5.215,-0.315 9.304,2.065 12.782,5.717c0.577,0.606 1.062,1.306 1.669,1.877c0.3,0.283 0.796,0.517 1.18,0.485c0.199,-0.016 0.468,-0.647 0.5,-1.019c0.261,-3.062 1.645,-5.533 3.902,-7.548c0.385,-0.343 0.872,-0.572 1.321,-0.859l1.108,5.186l0.481,-0.005c0.793,-4.154 3.629,-6.272 7.34,-7.607c-0.078,1.244 -0.259,2.408 -0.191,3.559c0.066,1.102 0.391,2.189 0.643,3.493c2.112,-1.473 3.95,-3.001 6.358,-2.938c-0.519,1.973 -1.082,3.894 -1.513,5.844c-0.221,1.001 0.056,1.95 1.329,1.923c0.465,-0.01 1.04,-0.373 1.363,-0.749c2.744,-3.189 5.786,-5.917 10.019,-6.965c5.398,-1.338 10.833,0.473 13.908,4.771c-0.583,0.144 -1.133,0.233 -1.652,0.415c-1.339,0.469 -2.758,0.813 -3.975,1.507c-2.577,1.469 -2.99,2.857 -2.373,6.152c0.056,0.297 0.529,0.61 0.874,0.737c0.547,0.2 1.163,0.206 1.727,0.372c3.291,0.969 4.864,3.695 3.923,6.986c-0.333,1.166 -0.857,2.319 -1.503,3.347c-1.675,2.665 -1.054,5.41 -0.367,8.125c0.152,0.602 0.951,1.08 1.519,1.533c3.47,2.765 3.804,6.983 0.472,9.934c-1.854,1.641 -4.101,2.873 -6.274,4.108c-1.996,1.134 -3.169,2.791 -3.177,4.975c-0.014,4.131 0.239,8.263 0.382,12.395zm-14.345,-7.109l-0.016,0.012c-0.012,0.093 0.018,0.169 0.089,0.229l0.251,0.601c0.891,2.339 1.745,4.693 2.682,7.014c1.118,2.77 0.344,2.668 3.888,2.348l2.93,-0.536c1.533,-0.03 1.932,-0.795 1.812,-2.287c-0.293,-3.627 -0.399,-7.27 -0.605,-10.905c-0.262,-4.633 1.55,-7.94 5.894,-9.906c1.577,-0.714 3.077,-1.812 4.301,-3.044c1.863,-1.874 1.333,-4.721 -0.94,-6.025l-0.195,1.605c-1.727,-2.7 -2.227,-5.443 -2.677,-8.203l-0.046,-1.472c0.071,-0.087 0.078,-0.18 0.021,-0.277l0.705,-5.334l0.273,0.04l0.396,1.671c0.57,-0.997 1.039,-1.686 1.376,-2.433c1.327,-2.936 0.133,-4.9 -3.128,-4.857c-1.944,0.025 -3.927,0.313 -5.814,0.792c-4.926,1.249 -8.965,4.195 -12.986,7.137c-0.402,0.294 -0.822,0.563 -1.234,0.844l-0.19,-0.223l2.086,-2.988l0.514,-0.599c0.07,-0.046 0.113,-0.11 0.128,-0.193l7.803,-6.251l-4.744,-2.53l-0.064,0.011l-0.343,-0.254c-5.479,-2.57 -11.305,-3.094 -17.182,-2.392c-3.222,0.385 -6.348,1.579 -9.517,2.408c-1.867,0.726 -3.642,1.591 -4.852,2.925c2.666,2.167 5.232,4.253 7.799,6.338l-0.004,-0.013l0.281,0.387l2.196,3.164c-2.479,-1.388 -4.714,-2.971 -7.015,-4.453c-3.563,-2.295 -7.427,-3.83 -11.688,-4.129c-1.804,-0.126 -3.936,-0.343 -4.873,1.589c-0.971,2.001 0.352,3.768 1.466,5.412c0.042,0.062 0.172,0.064 0.315,0.113l0.18,-1.56c0.36,0.764 0.582,1.519 0.67,2.289c0.173,1.512 0.273,3.032 0.403,4.548c-0.294,1.438 -0.486,2.906 -0.911,4.304c-0.434,1.427 -1.095,2.785 -1.657,4.173l-0.32,-0.148l-0.092,-1.429c-2.564,1.563 -2.712,4.768 -0.248,6.733c1.489,1.188 3.19,2.14 4.882,3.035c3.184,1.683 4.631,4.376 4.581,7.839c-0.058,3.986 -0.298,7.97 -0.528,11.952c-0.124,2.143 -0.188,2.14 1.76,2.595l3.212,0.548c1.021,-0.083 2.339,0.86 2.96,-0.656c1.226,-2.993 2.354,-6.026 3.523,-9.042c0.05,-0.072 0.074,-0.152 0.073,-0.24l0.297,-0.633l1.19,-2.27l0.355,0.125c-0.531,5.319 -2.405,10.332 -4,15.545c8.902,0 17.561,0.001 26.219,-0.004c0.139,0 0.278,-0.066 0.372,-0.09l-4.328,-16.414l0.487,-0.149l1.613,3.256l0.214,0.357zm10.143,24.528c-3.268,-0.162 -4.405,0.8 -5.18,4.488c2.129,-1.13 3.996,-2.404 5.157,-4.507l0.044,-0.11l-0.021,0.129zm9.498,-18.942c-2.802,5.742 -8.112,7.053 -13.639,7.684c0.892,1.7 1.765,3.365 2.637,5.03l-0.409,3.296c4.428,-0.274 8.312,-1.603 10.812,-5.416c2.327,-3.551 2.225,-7.478 0.99,-11.476l-0.391,0.882zm-61.883,-0.45c-0.017,-0.093 -0.018,-0.26 -0.052,-0.267c-0.101,-0.021 -0.307,0.009 -0.311,0.041c-0.209,1.639 -0.591,3.284 -0.563,4.921c0.097,5.716 3.184,9.62 8.701,11.133c1.269,0.348 2.601,0.466 3.958,0.7l-0.5,-3.364l2.721,-5.057c-5.853,-0.549 -11.168,-2.159 -13.954,-8.107zm45.853,19.962l0.316,-0.581c0.471,-1.075 1.021,-2.122 1.397,-3.229c1.215,-3.566 -0.156,-5.51 -3.929,-5.665l-0.738,-0.015c-7.876,-0.001 -15.752,-0.008 -23.628,0.011c-0.779,0.002 -1.575,0.093 -2.333,0.271c-2.338,0.549 -3.256,1.927 -2.641,4.237c0.401,1.504 1.112,2.926 1.685,4.385l0.296,0.543l0.223,0.366c1.281,1.657 2.305,3.63 3.889,4.912c5.208,4.216 11.17,4.564 17.297,2.428c3.778,-1.318 6.5,-3.982 8.167,-7.662l-0.001,-0.001zm15.492,-79.754c-5.852,-2.559 -11.877,-0.32 -15.35,5.707l2.039,0.989c2.671,-3.968 6.372,-6.429 10.977,-5.957c0.653,0.067 1.363,-0.415 2.334,-0.739zm-60.149,0.249c0.87,0.164 1.741,0.477 2.608,0.465c2.616,-0.035 4.998,0.592 6.972,2.333c1.235,1.09 2.33,2.339 3.549,3.579l1.86,-0.955c-3.134,-5.752 -9.587,-8.28 -14.989,-5.422zm55.386,2.842c-0.247,0.039 -0.669,0.069 -1.07,0.175c-2.076,0.556 -3.341,2.017 -4.104,3.914c-0.233,0.58 -0.361,1.528 -0.05,1.931c0.645,0.837 1.21,1.985 2.815,1.443c1.076,-0.364 1.359,-0.986 1.509,-1.885c0.297,-1.773 0.574,-3.551 0.9,-5.578zm-51.047,0.082c0.24,1.361 0.469,2.645 0.693,3.93c0.117,0.675 0.21,1.354 0.338,2.027c0.268,1.404 1.618,1.775 2.46,1.493c0.885,-0.296 1.997,-1.443 2.082,-2.31c0.23,-2.346 -3.087,-5.154 -5.573,-5.14zm4.167,76.022c1.299,1.932 3.024,3.416 5.542,4.55c-1.364,-2.495 -1.789,-5.487 -5.542,-4.55z" fill="#493310" fill-rule="evenodd" id="svg_1"/>
  <path clip-rule="evenodd" d="m91.564,105.665l5.162,0l0,20.628c-2.364,0.339 -4.352,0.308 -6.016,-1.937c-2.459,-3.316 -5.282,-6.362 -8.213,-9.836l0,11.826l-5.067,0l0,-20.65c2.329,-0.285 4.325,-0.296 5.985,1.956c2.447,3.318 5.268,6.361 8.149,9.782l0,-11.769z" fill="#ffffff" fill-rule="evenodd" id="svg_2"/>
  <path clip-rule="evenodd" d="m34.496,105.817c3.491,0 6.893,-0.204 10.257,0.062c2.858,0.227 5.174,1.617 5.862,4.746c0.61,2.771 -0.526,5.05 -3.401,6.985l5.718,8.722c-2.235,0 -4.13,0.097 -6.004,-0.063c-0.534,-0.045 -1.123,-0.755 -1.484,-1.296c-1.038,-1.553 -2.013,-3.152 -2.93,-4.78c-0.529,-0.939 -1.164,-1.438 -2.405,-1.076l0,7.218l-5.613,0l0,-20.518zm5.65,9.173c1.735,0.076 3.522,0.382 4.491,-1.235c0.428,-0.716 0.438,-2.17 -0.021,-2.83c-1.051,-1.511 -2.825,-1.116 -4.469,-1.058l-0.001,5.123z" fill="#ffffff" fill-rule="evenodd" id="svg_3"/>
  <path clip-rule="evenodd" d="m25.202,119.438l-2.819,0l0,-4.053l8.245,0c0,2.804 0.028,5.562 -0.033,8.317c-0.008,0.384 -0.372,0.936 -0.721,1.111c-4.789,2.405 -9.647,2.788 -14.375,-0.041c-3.7,-2.214 -5.383,-6.531 -4.545,-10.892c0.824,-4.286 3.886,-7.355 8.268,-8.209c3.599,-0.702 7.069,-0.408 10.259,1.578c0.487,0.304 0.907,0.717 1.429,1.136l-2.51,3.682c-0.979,-0.515 -1.824,-1.002 -2.704,-1.415c-3.872,-1.819 -7.87,-0.248 -8.856,3.462c-1.247,4.685 1.605,8.368 6.296,8.134c2.308,-0.114 2.44,-0.283 2.066,-2.81z" fill="#ffffff" fill-rule="evenodd" id="svg_4"/>
  <path clip-rule="evenodd" d="m67.632,105.645l5.489,0c0.088,0.109 0.2,0.184 0.2,0.257c-0.017,4.529 0.161,9.071 -0.131,13.583c-0.246,3.798 -3.31,6.437 -7.597,7.061c-2.539,0.37 -5.017,0.065 -7.291,-1.243c-2.398,-1.379 -3.826,-3.515 -3.962,-6.215c-0.199,-3.935 -0.082,-7.886 -0.098,-11.829l0,-1.564l5.63,0c0.021,0.45 0.062,0.923 0.063,1.396c0.007,3.55 -0.024,7.1 0.018,10.648c0.03,2.592 1.263,4.057 3.406,4.202c2.672,0.181 4.229,-1.195 4.261,-3.879c0.043,-3.599 0.012,-7.198 0.013,-10.798l-0.001,-1.619z" fill="#ffffff" fill-rule="evenodd" id="svg_5"/>
  <path clip-rule="evenodd" d="m117.257,105.697l0,4.338l-5.901,0c0,4.226 0.013,8.302 -0.007,12.378c-0.007,1.269 0.381,3.088 -0.277,3.663c-0.778,0.679 -2.495,0.284 -3.805,0.354l-0.147,0.001c-1.196,0.189 -1.609,-0.248 -1.589,-1.518c0.075,-4.877 0.03,-9.757 0.03,-14.832l-5.911,0l0,-4.384l17.607,0z" fill="#ffffff" fill-rule="evenodd" id="svg_6"/>
  <path clip-rule="evenodd" d="m34.396,34.266c-0.13,-1.517 -0.229,-3.037 -0.403,-4.548c-0.088,-0.77 -0.31,-1.525 -0.67,-2.289l-0.18,1.56c-0.144,-0.049 -0.274,-0.051 -0.315,-0.113c-1.115,-1.644 -2.437,-3.411 -1.466,-5.412c0.937,-1.932 3.069,-1.715 4.873,-1.589c4.261,0.3 8.125,1.834 11.688,4.129c2.301,1.482 4.536,3.065 7.015,4.453l-2.196,-3.165l-0.281,-0.386l0.004,0.013c-0.484,-1.15 -0.886,-2.342 -1.469,-3.439c-0.974,-1.834 -2.361,-3.53 -1.479,-5.824c3.169,-0.829 6.294,-2.023 9.517,-2.408c5.876,-0.702 11.702,-0.178 17.182,2.393l0.343,0.254l0.063,-0.01c0.071,2.022 -0.705,3.746 -1.724,5.447c-0.607,1.013 -0.899,2.216 -1.333,3.333c-0.015,0.083 -0.058,0.147 -0.128,0.193l-0.514,0.599l-2.086,2.988l0.19,0.223c0.412,-0.281 0.832,-0.55 1.234,-0.844c4.021,-2.942 8.06,-5.888 12.986,-7.137c1.887,-0.479 3.871,-0.767 5.814,-0.792c3.261,-0.042 4.455,1.921 3.128,4.857c-0.338,0.747 -0.807,1.436 -1.376,2.433l-0.396,-1.671l-0.273,-0.04l-0.705,5.334l-0.066,0.081l0.044,0.196l0.046,1.472c-0.157,0.419 -0.446,0.837 -0.45,1.258c-0.03,3.412 0.274,6.749 2.891,9.748c-2.074,1.055 -3.91,2.07 -5.813,2.933c-1.727,0.783 -3.52,1.484 -4.14,3.472c-0.515,1.65 -0.81,3.369 -1.199,5.044l-0.959,-2.66c-0.28,6.486 0.017,12.836 2.081,18.97l-2.93,0.536c-1.957,-2.976 -3.908,-5.956 -5.883,-8.92c-0.138,-0.208 -0.454,-0.297 -0.687,-0.441l-0.251,-0.601l0.126,-0.178l-0.215,-0.051l0.017,-0.012l-0.215,-0.359l-1.613,-3.256l-0.487,0.149l4.328,16.414c-0.093,0.024 -0.232,0.09 -0.372,0.09c-8.658,0.005 -17.317,0.004 -26.219,0.004c1.595,-5.213 3.469,-10.227 4,-15.545l-0.355,-0.125l-1.19,2.27l-0.297,0.633c0.001,0.088 -0.022,0.167 -0.073,0.24c-0.289,0.23 -0.656,0.407 -0.853,0.699c-1.443,2.141 -2.871,4.292 -4.261,6.468c-0.515,0.807 -0.916,1.686 -1.37,2.532l-3.212,-0.548c2.159,-6.118 2.428,-12.454 2.142,-18.865l-1.016,2.654c-0.217,-4.336 -1.509,-7.608 -6.088,-8.946c-1.746,-0.51 -3.264,-1.8 -4.521,-2.525c0.784,-1.991 1.676,-3.469 1.91,-5.045c0.308,-2.071 0.096,-4.217 0.107,-6.328zm33.198,0.327l0.297,-0.308l0.724,-0.84c-1.882,0.184 -3.714,0.512 -5.544,0.502c-1.846,-0.01 -3.691,-0.354 -5.537,-0.552l-0.385,-0.107l0.385,0.107l0.589,1.185c3.291,3.741 6.039,3.815 9.349,0.25l0.142,-0.253l-0.02,0.016zm-18.351,19.82l3.529,-2.182c0.792,-1.558 1.738,-3.063 2.31,-4.697c0.273,-0.782 0.421,-1.211 1.271,-1.434c1.866,-0.489 2.825,-1.749 2.778,-3.374l-1.87,0.229c-2,-1.136 -3.515,-2.713 -4.745,-4.676c-0.685,-1.092 -1.749,-1.984 -2.759,-2.826c-2.152,-1.794 -4.846,-2.203 -7.478,-2.259c-1.617,-0.034 -3.251,0.736 -4.877,1.145c-0.05,0.048 -0.104,0.054 -0.164,0.018l-0.428,0.183l-0.083,0.121l0.04,0.126c0.585,0.208 1.172,0.41 1.863,0.647c-1.568,1.969 -1.371,3.839 -0.173,5.884l0.622,-2.19l0.299,0.028l0.151,1.548l0.198,0.687l0.115,0.459c-0.163,4.962 4.275,8.535 10.872,8.413l-1.467,4.154l-0.067,0.12l0.063,-0.124zm27.241,0l0.117,0.07l-0.122,-0.065l-1.415,-4.2c7.689,0.76 10.844,-4.467 11.121,-9.241l0.304,-1.802l0.25,0.01l0.577,2.145c1.163,-2.066 1.461,-3.948 -0.165,-5.855l1.929,-0.757l-0.803,-0.315c-0.393,-0.239 -0.769,-0.649 -1.18,-0.687c-1.772,-0.167 -3.563,-0.384 -5.332,-0.287c-3.512,0.194 -6.402,1.725 -8.382,4.685c-1.316,1.968 -2.735,3.78 -4.918,4.843l-2.022,-0.229c0.323,1.924 1.42,2.925 3.107,3.459c0.399,0.126 0.803,0.556 1,0.949c0.843,1.679 1.61,3.397 2.404,5.102c1.178,0.724 2.354,1.45 3.53,2.175z" fill="#F5A900" fill-rule="evenodd" id="svg_7"/>
  <path clip-rule="evenodd" d="m47.789,88.167c-0.572,-1.458 -1.283,-2.88 -1.685,-4.385c-0.616,-2.31 0.302,-3.688 2.641,-4.237c0.758,-0.178 1.554,-0.269 2.333,-0.271c7.876,-0.019 15.752,-0.012 23.628,-0.011l0.738,0.015c3.773,0.155 5.144,2.099 3.929,5.665c-0.376,1.106 -0.926,2.154 -1.397,3.229l-0.316,0.581l0,0.001c-1.019,0.662 -2.01,1.372 -3.062,1.976c-2.644,1.517 -5.525,2.206 -8.542,2.567c-4.127,0.496 -8.155,0.182 -12.017,-1.299c-1.991,-0.764 -3.826,-1.935 -5.732,-2.921l-0.223,-0.366l-0.295,-0.544zm28.365,-2.383l0.325,-0.583c0.903,-2.323 0.498,-2.954 -1.958,-2.982c-1.824,-0.021 -3.649,-0.036 -5.473,0.004c-1.77,0.039 -2.164,0.61 -1.692,2.306c0.214,0.885 0.304,1.824 0.665,2.645c0.919,2.089 2.582,3.255 4.052,3.009c2.003,-0.334 3.798,-2.271 4.089,-4.41l-0.008,0.011zm-26.59,-0.002l-0.004,-0.008c0.334,2.222 1.678,3.589 3.743,4.257c1.456,0.471 2.737,-0.187 3.445,-1.323c0.773,-1.241 1.117,-2.749 1.648,-4.14c0.506,-1.734 0.149,-2.289 -1.614,-2.341c-1.575,-0.047 -3.152,-0.022 -4.728,-0.01c-3.382,0.026 -3.448,0.108 -2.796,3.258l0.306,0.307z" fill="#F5A800" fill-rule="evenodd" id="svg_8"/>
  <path clip-rule="evenodd" d="m34.396,34.266c-0.011,2.112 0.201,4.257 -0.105,6.326c-0.234,1.576 -1.126,3.054 -1.91,5.045c1.258,0.725 2.775,2.015 4.521,2.525c4.579,1.338 5.871,4.61 6.088,8.946l1.016,-2.654c0.286,6.411 0.017,12.748 -2.142,18.865c-1.947,-0.455 -1.883,-0.452 -1.76,-2.595c0.229,-3.981 0.47,-7.966 0.528,-11.952c0.05,-3.463 -1.397,-6.156 -4.581,-7.839c-1.692,-0.895 -3.394,-1.847 -4.882,-3.035c-2.464,-1.965 -2.316,-5.169 0.248,-6.733l0.092,1.429l0.32,0.148c0.562,-1.388 1.223,-2.746 1.657,-4.173c0.424,-1.398 0.616,-2.866 0.91,-4.303zm49.478,39.055c-2.064,-6.134 -2.361,-12.483 -2.081,-18.97l0.959,2.66c0.389,-1.675 0.684,-3.394 1.199,-5.044c0.62,-1.988 2.413,-2.688 4.14,-3.472c1.904,-0.863 3.739,-1.878 5.813,-2.933c-2.617,-2.999 -2.921,-6.336 -2.891,-9.748c0.003,-0.42 0.293,-0.838 0.45,-1.258c0.451,2.76 0.951,5.503 2.677,8.203l0.195,-1.605c2.273,1.304 2.803,4.151 0.94,6.025c-1.224,1.232 -2.724,2.33 -4.301,3.044c-4.343,1.966 -6.156,5.272 -5.894,9.906c0.206,3.635 0.312,7.277 0.605,10.905c0.121,1.492 -0.279,2.258 -1.811,2.287zm10.523,-30.377l-0.042,0.079l0.062,0.008l-0.02,-0.087z" fill="#E08700" fill-rule="evenodd" id="svg_9"/>
  <path clip-rule="evenodd" d="m48.308,89.076c1.906,0.987 3.741,2.158 5.732,2.921c3.862,1.48 7.889,1.795 12.017,1.299c3.018,-0.361 5.899,-1.05 8.542,-2.567c1.052,-0.604 2.042,-1.313 3.062,-1.976c-1.667,3.68 -4.388,6.344 -8.167,7.662c-6.126,2.136 -12.088,1.788 -17.297,-2.428c-1.584,-1.281 -2.609,-3.254 -3.889,-4.911z" fill="#E08600" fill-rule="evenodd" id="svg_10"/>
  <path clip-rule="evenodd" d="m31.808,68.79c2.786,5.948 8.101,7.559 13.953,8.108l-2.721,5.057c-7,-0.573 -11.509,-5.858 -11.232,-13.165zm50.882,13.164l-2.637,-5.03c5.526,-0.631 10.837,-1.942 13.639,-7.684c0.088,0.364 0.263,0.73 0.251,1.091c-0.208,6.014 -4.333,11.079 -11.253,11.623z" fill="#fff" fill-rule="evenodd" id="svg_11"/>
  <path clip-rule="evenodd" d="m31.808,68.79c-0.277,7.307 4.232,12.593 11.232,13.165l0.5,3.364c-1.357,-0.234 -2.688,-0.353 -3.958,-0.7c-5.518,-1.513 -8.604,-5.417 -8.701,-11.133c-0.028,-1.638 0.354,-3.282 0.563,-4.921c0.004,-0.031 0.21,-0.062 0.311,-0.041c0.035,0.006 0.037,0.172 0.053,0.266zm50.882,13.164c6.92,-0.544 11.045,-5.609 11.252,-11.624c0.012,-0.36 -0.163,-0.727 -0.251,-1.091l0.391,-0.881c1.235,3.998 1.337,7.925 -0.99,11.476c-2.5,3.813 -6.384,5.142 -10.812,5.416l0.41,-3.296z" fill="#C7C6C6" fill-rule="evenodd" id="svg_12"/>
  <path clip-rule="evenodd" d="m93.153,8.998c-0.971,0.324 -1.681,0.807 -2.334,0.74c-4.605,-0.473 -8.306,1.989 -10.977,5.957l-2.039,-0.989c3.473,-6.028 9.498,-8.267 15.35,-5.708zm-60.149,0.249c5.402,-2.857 11.855,-0.329 14.989,5.422l-1.86,0.955c-1.219,-1.24 -2.314,-2.489 -3.549,-3.579c-1.974,-1.741 -4.355,-2.368 -6.972,-2.333c-0.867,0.011 -1.738,-0.301 -2.608,-0.465z" fill="#F0A500" fill-rule="evenodd" id="svg_13"/>
  <path clip-rule="evenodd" d="m88.39,12.089c-0.326,2.027 -0.604,3.804 -0.899,5.578c-0.15,0.899 -0.434,1.521 -1.509,1.885c-1.604,0.542 -2.17,-0.606 -2.815,-1.443c-0.312,-0.403 -0.183,-1.352 0.05,-1.931c0.762,-1.897 2.028,-3.358 4.104,-3.914c0.4,-0.106 0.822,-0.136 1.069,-0.175zm-51.047,0.082c2.486,-0.014 5.803,2.794 5.573,5.14c-0.085,0.867 -1.196,2.014 -2.082,2.31c-0.842,0.282 -2.192,-0.088 -2.46,-1.493c-0.128,-0.673 -0.221,-1.352 -0.338,-2.027c-0.224,-1.285 -0.453,-2.569 -0.693,-3.93z" fill="#DE8500" fill-rule="evenodd" id="svg_14"/>
  <path clip-rule="evenodd" d="m49.517,17.656c-0.882,2.294 0.505,3.99 1.479,5.824c0.583,1.097 0.985,2.289 1.469,3.439c-2.567,-2.085 -5.133,-4.171 -7.799,-6.338c1.209,-1.334 2.984,-2.2 4.851,-2.925z" fill="#E08600" fill-rule="evenodd" id="svg_15"/>
  <path clip-rule="evenodd" d="m73.563,26.665c0.434,-1.118 0.726,-2.32 1.333,-3.333c1.019,-1.701 1.795,-3.424 1.724,-5.447c1.604,0.853 3.206,1.708 4.746,2.529l-7.803,6.251zm0.812,37.831c0.233,0.145 0.548,0.234 0.687,0.441c1.975,2.964 3.926,5.944 5.883,8.92c-3.543,0.32 -2.77,0.422 -3.888,-2.348c-0.937,-2.32 -1.792,-4.674 -2.682,-7.013zm-29.299,9.371c0.454,-0.846 0.854,-1.725 1.37,-2.532c1.39,-2.175 2.818,-4.327 4.261,-6.468c0.197,-0.292 0.564,-0.469 0.853,-0.699c-1.169,3.016 -2.297,6.049 -3.523,9.042c-0.622,1.517 -1.94,0.574 -2.961,0.657z" fill="#DE8600" fill-rule="evenodd" id="svg_16"/>
  <path clip-rule="evenodd" d="m41.51,88.193c3.753,-0.937 4.178,2.054 5.542,4.55c-2.518,-1.134 -4.242,-2.618 -5.542,-4.55zm42.661,-0.03c-1.161,2.103 -3.028,3.377 -5.157,4.507c0.774,-3.688 1.912,-4.65 5.18,-4.488l-0.023,-0.019zm0.022,0.019l0.021,-0.13l-0.044,0.111l0.023,0.019z" fill="#ECA200" fill-rule="evenodd" id="svg_17"/>
  <path clip-rule="evenodd" d="m74.034,63.666l0.215,0.051l-0.126,0.178c-0.071,-0.061 -0.101,-0.137 -0.089,-0.229z" fill="#DE8600" fill-rule="evenodd" id="svg_18"/>
  <path clip-rule="evenodd" d="m91.416,33.085l-0.044,-0.196l0.066,-0.081c0.056,0.097 0.049,0.19 -0.022,0.277z" fill="#E08700" fill-rule="evenodd" id="svg_19"/>
  <path clip-rule="evenodd" d="m72.956,52.236c-0.794,-1.704 -1.561,-3.422 -2.404,-5.102c-0.197,-0.393 -0.601,-0.822 -1,-0.949c-1.687,-0.534 -2.784,-1.535 -3.107,-3.459l2.022,0.229c0.38,0.026 0.768,0.118 1.137,0.068c1.769,-0.24 2.977,-1.36 4.152,-2.599c3.939,-4.154 8.561,-6.72 14.523,-6.022l0.803,0.315l-1.929,0.757c1.625,1.907 1.327,3.789 0.165,5.855l-0.577,-2.145l-0.25,-0.01l-0.304,1.803c-0.848,1.992 -1.655,4.002 -3.723,5.119c-3.01,1.625 -6.032,2.335 -9.076,0.176c-1.299,1.977 -0.531,3.992 -0.432,5.964zm9.963,-11.17l0,-3.708c-3.12,1.836 -5.784,3.622 -7.919,6.102l-0.88,1.063c2.979,2.234 8.805,0.764 8.799,-3.457z" fill="#49330E" fill-rule="evenodd" id="svg_20"/>
  <path clip-rule="evenodd" d="m39.841,41.85l-0.115,-0.459l-0.198,-0.687l-0.151,-1.548l-0.299,-0.028l-0.622,2.19c-1.198,-2.045 -1.395,-3.916 0.173,-5.884c-0.69,-0.238 -1.278,-0.439 -1.863,-0.647l-0.04,-0.126l0.083,-0.121l0.428,-0.183c0.059,0.036 0.114,0.03 0.164,-0.019c2.233,0.245 4.535,0.229 6.683,0.796c3.373,0.891 5.977,3.125 8.307,5.674c1.296,1.417 2.785,2.48 4.87,2.147l1.87,-0.229c0.047,1.625 -0.912,2.884 -2.778,3.374c-0.851,0.223 -0.999,0.652 -1.271,1.434c-0.571,1.635 -1.517,3.14 -2.309,4.696c0.197,-1.995 0.876,-4.028 -0.434,-5.989c-1.587,1.185 -3.316,1.62 -5.188,1.284c-3.415,-0.613 -5.941,-2.408 -7.31,-5.675zm10.908,1.581c-2.136,-2.473 -4.794,-4.26 -7.911,-6.077l0,3.706c0.049,4.311 5.937,5.679 8.754,3.498c-0.084,-0.155 -0.155,-0.333 -0.268,-0.478c-0.176,-0.228 -0.382,-0.434 -0.575,-0.649z" fill="#49330F" fill-rule="evenodd" id="svg_21"/>
  <path clip-rule="evenodd" d="m72.956,52.236c-0.099,-1.973 -0.867,-3.987 0.431,-5.964c3.044,2.159 6.066,1.449 9.076,-0.176c2.068,-1.117 2.875,-3.127 3.723,-5.119c-0.277,4.773 -3.432,10 -11.121,9.241l1.415,4.2l0.004,-0.005l-3.528,-2.177zm-33.115,-10.386c1.369,3.267 3.895,5.062 7.309,5.675c1.872,0.336 3.601,-0.099 5.188,-1.284c1.31,1.961 0.631,3.994 0.434,5.989l-3.529,2.183l0.004,0.004l1.467,-4.154c-6.598,0.122 -11.035,-3.451 -10.873,-8.413z" fill="#E08700" fill-rule="evenodd" id="svg_22"/>
  <path clip-rule="evenodd" d="m57.26,42.955c-2.085,0.333 -3.574,-0.73 -4.87,-2.147c-2.33,-2.548 -4.934,-4.783 -8.307,-5.674c-2.148,-0.567 -4.45,-0.551 -6.683,-0.796c1.626,-0.408 3.26,-1.178 4.877,-1.144c2.632,0.056 5.326,0.465 7.478,2.259c1.01,0.842 2.074,1.734 2.759,2.826c1.232,1.963 2.747,3.54 4.746,4.676z" fill="#DE8600" fill-rule="evenodd" id="svg_23"/>
  <path clip-rule="evenodd" d="m88.278,34.402c-5.962,-0.698 -10.584,1.869 -14.523,6.022c-1.175,1.239 -2.383,2.359 -4.152,2.599c-0.369,0.05 -0.757,-0.042 -1.137,-0.068c2.183,-1.063 3.602,-2.875 4.918,-4.843c1.98,-2.96 4.871,-4.49 8.382,-4.685c1.768,-0.097 3.56,0.12 5.332,0.287c0.412,0.039 0.788,0.449 1.18,0.688zm-30.154,0.177l-0.589,-1.185c1.845,0.198 3.69,0.542 5.537,0.552c1.831,0.01 3.663,-0.318 5.544,-0.502l-0.724,0.84l-0.297,0.308l0.021,-0.017c-1.848,0.311 -3.691,0.817 -5.546,0.865c-1.308,0.036 -2.631,-0.551 -3.946,-0.861z" fill="#DF8600" fill-rule="evenodd" id="svg_24"/>
  <path clip-rule="evenodd" d="m58.124,34.579c1.315,0.31 2.638,0.897 3.944,0.862c1.855,-0.048 3.698,-0.555 5.546,-0.865l-0.142,0.253c-3.309,3.565 -6.057,3.491 -9.348,-0.25z" fill="#52380B" fill-rule="evenodd" id="svg_25"/>
  <path clip-rule="evenodd" d="m67.356,84.528c-0.472,-1.695 -0.078,-2.267 1.692,-2.306c1.824,-0.041 3.649,-0.025 5.473,-0.004c2.456,0.028 2.861,0.659 1.958,2.982l-0.325,0.583l0.008,-0.012c-0.426,0.461 -0.841,0.936 -1.282,1.383c-2.001,2.032 -4.198,1.901 -5.93,-0.368c-0.559,-0.731 -1.064,-1.504 -1.594,-2.258z" fill="#47310D" fill-rule="evenodd" id="svg_26"/>
  <path clip-rule="evenodd" d="m49.258,85.476c-0.652,-3.15 -0.586,-3.232 2.796,-3.258c1.576,-0.012 3.153,-0.038 4.728,0.01c1.763,0.053 2.121,0.607 1.614,2.341c-0.598,0.84 -1.165,1.704 -1.799,2.516c-1.485,1.898 -3.593,2.017 -5.365,0.329c-0.565,-0.538 -1.115,-1.092 -1.672,-1.639l0.003,0.008l-0.305,-0.307z" fill="#47310E" fill-rule="evenodd" id="svg_27"/>
  <path clip-rule="evenodd" d="m49.561,85.774c0.557,0.546 1.107,1.101 1.672,1.639c1.771,1.688 3.88,1.57 5.365,-0.329c0.634,-0.812 1.202,-1.676 1.799,-2.516c-0.531,1.392 -0.875,2.899 -1.648,4.14c-0.708,1.136 -1.989,1.794 -3.445,1.323c-2.066,-0.668 -3.409,-2.035 -3.743,-4.257z" fill="#DC8400" fill-rule="evenodd" id="svg_28"/>
  <path clip-rule="evenodd" d="m67.356,84.528c0.53,0.754 1.035,1.526 1.594,2.259c1.732,2.269 3.929,2.4 5.93,0.368c0.441,-0.447 0.855,-0.921 1.282,-1.383c-0.291,2.139 -2.086,4.076 -4.089,4.41c-1.471,0.246 -3.133,-0.92 -4.052,-3.009c-0.361,-0.82 -0.451,-1.76 -0.665,-2.645z" fill="#DE8500" fill-rule="evenodd" id="svg_29"/>
  <path clip-rule="evenodd" d="m94.397,42.944l0.02,0.087l-0.062,-0.008l0.042,-0.079z" fill="#493310" fill-rule="evenodd" id="svg_30"/>
  <path clip-rule="evenodd" d="m75,43.459c2.135,-2.48 4.799,-4.265 7.919,-6.102l0,3.708c-1.287,1.641 -2.742,3.105 -4.982,3.102c-0.979,0 -1.958,-0.458 -2.937,-0.708z" fill="#fff" fill-rule="evenodd" id="svg_31"/>
  <path clip-rule="evenodd" d="m75,43.459c0.979,0.25 1.958,0.708 2.937,0.709c2.24,0.003 3.695,-1.461 4.982,-3.102c0.006,4.221 -5.82,5.691 -8.799,3.457l0.88,-1.064z" fill="#C5C4C3" fill-rule="evenodd" id="svg_32"/>
  <path clip-rule="evenodd" d="m42.838,41.06l0,-3.706c3.117,1.817 5.774,3.604 7.911,6.077c-1.231,1.11 -3.729,1.144 -5.531,-0.094c-0.893,-0.613 -1.593,-1.509 -2.38,-2.277z" fill="#fff" fill-rule="evenodd" id="svg_33"/>
  <path clip-rule="evenodd" d="m42.838,41.06c0.787,0.768 1.486,1.664 2.379,2.277c1.803,1.238 4.3,1.204 5.531,0.094c0.193,0.215 0.399,0.421 0.576,0.649c0.113,0.145 0.183,0.323 0.268,0.478c-2.817,2.18 -8.704,0.813 -8.754,-3.498z" fill="#C5C4C3" fill-rule="evenodd" id="svg_34"/>
 </g>
</svg>