<?xml version="1.0" encoding="UTF-8" standalone="no"?>
<svg
   xmlns:dc="http://purl.org/dc/elements/1.1/"
   xmlns:cc="http://creativecommons.org/ns#"
   xmlns:rdf="http://www.w3.org/1999/02/22-rdf-syntax-ns#"
   xmlns:svg="http://www.w3.org/2000/svg"
   xmlns="http://www.w3.org/2000/svg"
   xmlns:sodipodi="http://sodipodi.sourceforge.net/DTD/sodipodi-0.dtd"
   xmlns:inkscape="http://www.inkscape.org/namespaces/inkscape"
   viewBox="0 0 128 128"
   enable-background="new 0 0 128 128"
   version="1.1"
   id="svg8"
   sodipodi:docname="react-original-wordmark.svg"
   inkscape:version="0.92.3 (2405546, 2018-03-11)">
  <metadata
     id="metadata14">
    <rdf:RDF>
      <cc:Work
         rdf:about="">
        <dc:format>image/svg+xml</dc:format>
        <dc:type
           rdf:resource="http://purl.org/dc/dcmitype/StillImage" />
      </cc:Work>
    </rdf:RDF>
  </metadata>
  <defs
     id="defs12" />
  <sodipodi:namedview
     pagecolor="#ffffff"
     bordercolor="#666666"
     borderopacity="1"
     objecttolerance="10"
     gridtolerance="10"
     guidetolerance="10"
     inkscape:pageopacity="0"
     inkscape:pageshadow="2"
     inkscape:window-width="1920"
     inkscape:window-height="1017"
     id="namedview10"
     showgrid="false"
     inkscape:zoom="1.84375"
     inkscape:cx="64"
     inkscape:cy="64"
     inkscape:window-x="-8"
     inkscape:window-y="-8"
     inkscape:window-maximized="1"
     inkscape:current-layer="g20" />
  <g
     fill="#61DAFB"
     id="g6">
    <circle
       cx="64"
       cy="47.5"
       r="9.3"
       id="circle2" />
    <path
       d="M64 81.7c7.3 7.1 14.5 11.3 20.3 11.3 1.9 0 3.7-.4 5.2-1.3 5.2-3 7.1-10.5 5.3-21.2-.3-1.9-.7-3.8-1.2-5.8 2-.6 3.8-1.2 5.6-1.8 10.1-3.9 15.7-9.3 15.7-15.2 0-6-5.6-11.4-15.7-15.2-1.8-.7-3.6-1.3-5.6-1.8.5-2 .9-3.9 1.2-5.8 1.7-10.9-.2-18.5-5.4-21.5-1.5-.9-3.3-1.3-5.2-1.3-5.7 0-13 4.2-20.3 11.3-7.2-7.1-14.4-11.3-20.2-11.3-1.9 0-3.7.4-5.2 1.3-5.2 3-7.1 10.5-5.3 21.2.3 1.9.7 3.8 1.2 5.8-2 .6-3.8 1.2-5.6 1.8-10.1 3.9-15.7 9.3-15.7 15.2 0 6 5.6 11.4 15.7 15.2 1.8.7 3.6 1.3 5.6 1.8-.5 2-.9 3.9-1.2 5.8-1.7 10.7.2 18.3 5.3 21.2 1.5.9 3.3 1.3 5.2 1.3 5.8.2 13-4 20.3-11zm-5.6-13.5c1.8.1 3.7.1 5.6.1 1.9 0 3.8 0 5.6-.1-1.8 2.4-3.7 4.6-5.6 6.7-1.9-2.1-3.8-4.3-5.6-6.7zm-12.4-10.3c1 1.7 1.9 3.3 3 4.9-3.1-.4-6-.9-8.8-1.5.9-2.7 1.9-5.5 3.1-8.3.8 1.6 1.7 3.3 2.7 4.9zm-5.8-24.1c2.8-.6 5.7-1.1 8.8-1.5-1 1.6-2 3.2-3 4.9-1 1.7-1.9 3.3-2.7 5-1.3-2.9-2.3-5.7-3.1-8.4zm5.5 13.7c1.3-2.7 2.7-5.4 4.3-8.1 1.5-2.6 3.2-5.2 4.9-7.8 3-.2 6-.3 9.1-.3 3.2 0 6.2.1 9.1.3 1.8 2.6 3.4 5.2 4.9 7.8 1.6 2.7 3 5.4 4.3 8.1-1.3 2.7-2.7 5.4-4.3 8.1-1.5 2.6-3.2 5.2-4.9 7.8-3 .2-6 .3-9.1.3-3.2 0-6.2-.1-9.1-.3-1.8-2.6-3.4-5.2-4.9-7.8-1.6-2.7-3-5.4-4.3-8.1zm39.1-5.4l-2.7-5c-1-1.7-1.9-3.3-3-4.9 3.1.4 6 .9 8.8 1.5-.9 2.8-1.9 5.6-3.1 8.4zm0 10.8c1.2 2.8 2.2 5.6 3.1 8.3-2.8.6-5.7 1.1-8.8 1.5 1-1.6 2-3.2 3-4.9.9-1.5 1.8-3.2 2.7-4.9zm2.3 34.7c-.8.5-1.8.7-2.9.7-4.9 0-11-4-17-10 2.9-3.1 5.7-6.6 8.5-10.5 4.7-.4 9.2-1.1 13.4-2.1.5 1.8.8 3.6 1.1 5.4 1.4 8.5.3 14.6-3.1 16.5zm5.2-52.7c11.2 3.2 17.9 8.1 17.9 12.6 0 3.9-4.6 7.8-12.7 10.9-1.6.6-3.4 1.2-5.2 1.7-1.3-4.1-2.9-8.3-4.9-12.6 2-4.3 3.7-8.5 4.9-12.6zm-8-28.2c1.1 0 2 .2 2.9.7 3.3 1.9 4.5 7.9 3.1 16.5-.3 1.7-.7 3.5-1.1 5.4-4.2-.9-8.7-1.6-13.4-2.1-2.7-3.9-5.6-7.4-8.5-10.5 6-5.9 12.1-10 17-10zm-14.7 20.1c-1.8-.1-3.7-.1-5.6-.1s-3.8 0-5.6.1c1.8-2.4 3.7-4.6 5.6-6.7 1.9 2.1 3.8 4.4 5.6 6.7zm-28.7-19.4c.8-.5 1.8-.7 2.9-.7 4.9 0 11 4 17 10-2.9 3.1-5.7 6.6-8.5 10.5-4.7.4-9.2 1.1-13.4 2.1-.5-1.8-.8-3.6-1.1-5.4-1.4-8.5-.3-14.5 3.1-16.5zm-5.2 52.7c-11.2-3.2-17.9-8.1-17.9-12.6 0-3.9 4.6-7.8 12.7-10.9 1.6-.6 3.4-1.2 5.2-1.7 1.3 4.1 2.9 8.3 4.9 12.6-2 4.3-3.7 8.6-4.9 12.6zm2.1 11c.3-1.7.7-3.5 1.1-5.4 4.2.9 8.7 1.6 13.4 2.1 2.7 3.9 5.6 7.4 8.5 10.5-6 5.9-12.1 10-17 10-1.1 0-2-.2-2.9-.7-3.4-1.9-4.5-8-3.1-16.5zM33.6 112.3c2.2-2.7 2.3-5.7 1.1-8.7-1.2-3-3.7-4.4-6.8-4.5-3.7-.1-7.5 0-11.2 0h-.7v25.9h3v-9.8h4.7c.6 0 1.1.2 1.4.7l6 9.3c.1.2.4.5.6.5h3.9c-2.4-3.7-4.7-7.2-7.1-10.8 2.1-.3 3.9-1 5.1-2.6zm-14.6-.2v-9.9h1.1c2.3 0 4.7-.1 7 .1 2.7.1 4.6 2.2 4.6 4.9s-2.2 4.8-4.9 4.9c-2.4.1-4.8 0-7.8 0zM57.7 113.4c-1.6-7-8-8.8-12.9-6.6-3.8 1.7-5.5 5-5.6 9.1-.1 3.1.8 5.9 3.2 8 2.7 2.4 6 2.7 9.4 2.1 1.9-.4 3.6-1.3 4.9-2.7-.5-.7-1-1.4-1.5-2-2.8 2.4-5.9 3.2-9.3 1.6-2.2-1.1-3.3-3.8-3.5-5.8h15.5v-1.3c.1-.9 0-1.7-.2-2.4zm-15.1 1.6c-.3-3 2.7-6.2 6-6.2 3.8-.1 6.2 2.2 6.3 6.2h-12.3zM73.3 106.3c-1.5-.3-3.1-.4-4.6-.3-2.4.2-4.5 1.3-6.2 3.1.5.7.9 1.4 1.5 2.2.2-.2.4-.4.6-.5 1.6-1.5 3.5-2.3 5.8-2.1 1.8.1 3.5.7 4 2.5.4 1.4.3 2.9.4 4.4-.3 0-.4-.1-.5-.2-2.4-2-5.1-2.4-8-1.7-2.7.7-4.4 2.8-4.6 5.5-.2 3.1 1.2 5.4 3.9 6.5 1.7.7 3.6.7 5.4.3 1.4-.3 2-1.1 4-2.2v1.3h2.8c0-4 .1-8.9 0-13.5 0-2.9-1.7-4.7-4.5-5.3zm1.4 12.6c-.1.3 0 .6 0 .9 0 2.1-.5 2.8-2.5 3.6-1.4.5-2.9.7-4.4.2-1.7-.5-2.9-2-2.9-3.7-.1-1.7 1-3.4 2.7-3.9 2.3-.8 4.4-.3 6.3 1.1.6.5 1 1 .8 1.8zM90.3 109c2.6-.8 5-.3 6.8 1.9l.3.2c.7-.6 1.3-1.2 2.1-1.9-.3-.3-.4-.5-.6-.8-2.9-3.1-8.6-3.5-12.1-1-4.9 3.6-4.8 10.6-2.4 14.3 2.3 3.5 5.6 4.7 9.5 4.2 2.3-.3 4.2-1.4 5.7-3.3-.7-.6-1.4-1.2-2.1-1.9-.2.2-.3.3-.4.5-2.7 3-7.2 2.7-9.6-.5-1.4-1.9-1.7-4.1-1.3-6.3.2-2.5 1.5-4.5 4.1-5.4zM111.1 122.6c-.2.1-.3.2-.3.2-.8.6-1.6.7-2.5.4-.9-.4-1-1.2-1.1-2v-11.4c0-.2 0 .2.1-.8h3.8v-3h-4v-5h-3v5.4h-2.6c-.2 0-.5.2-.5.4-.1.7 0 1.2 0 2.2h3.2v12.799999999999999c0 1.6.4 3 1.8 3.8 1.5.9 4.4.7 5.7-.4.2-.1.3-.5.3-.6-.3-.6-.6-1.3-.9-2z"
       id="path4" />
  </g>
  <g
     id="g20"
     fill="#61DAFB">
    <path
       id="path128"
       d="m 37.8,71.1 c 0.3,-1.7 0.7,-3.5 1.1,-5.4 4.2,0.9 8.7,1.6 13.4,2.1 2.7,3.9 5.6,7.4 8.5,10.5 -6,5.9 -12.1,10 -17,10 -1.1,0 -2,-0.2 -2.9,-0.7 -3.4,-1.9 -4.5,-8 -3.1,-16.5 z m -2.1,-11 C 24.5,56.9 17.8,52 17.8,47.5 c 0,-3.9 4.6,-7.8 12.7,-10.9 1.6,-0.6 3.4,-1.2 5.2,-1.7 1.3,4.1 2.9,8.3 4.9,12.6 -2,4.3 -3.7,8.6 -4.9,12.6 z M 40.9,7.4 c 0.8,-0.5 1.8,-0.7 2.9,-0.7 4.9,0 11,4 17,10 -2.9,3.1 -5.7,6.6 -8.5,10.5 -4.7,0.4 -9.2,1.1 -13.4,2.1 C 38.4,27.5 38.1,25.7 37.8,23.9 36.4,15.4 37.5,9.4 40.9,7.4 Z m 28.7,19.4 c -1.8,-0.1 -3.7,-0.1 -5.6,-0.1 -1.9,0 -3.8,0 -5.6,0.1 1.8,-2.4 3.7,-4.6 5.6,-6.7 1.9,2.1 3.8,4.4 5.6,6.7 z M 84.3,6.7 c 1.1,0 2,0.2 2.9,0.7 3.3,1.9 4.5,7.9 3.1,16.5 -0.3,1.7 -0.7,3.5 -1.1,5.4 -4.2,-0.9 -8.7,-1.6 -13.4,-2.1 -2.7,-3.9 -5.6,-7.4 -8.5,-10.5 6,-5.9 12.1,-10 17,-10 z m 8,28.2 c 11.2,3.2 17.9,8.1 17.9,12.6 0,3.9 -4.6,7.8 -12.7,10.9 -1.6,0.6 -3.4,1.2 -5.2,1.7 C 91,56 89.4,51.8 87.4,47.5 c 2,-4.3 3.7,-8.5 4.9,-12.6 z m -5.2,52.7 c -0.8,0.5 -1.8,0.7 -2.9,0.7 -4.9,0 -11,-4 -17,-10 2.9,-3.1 5.7,-6.6 8.5,-10.5 4.7,-0.4 9.2,-1.1 13.4,-2.1 0.5,1.8 0.8,3.6 1.1,5.4 1.4,8.5 0.3,14.6 -3.1,16.5 z M 84.8,52.9 c 1.2,2.8 2.2,5.6 3.1,8.3 -2.8,0.6 -5.7,1.1 -8.8,1.5 1,-1.6 2,-3.2 3,-4.9 0.9,-1.5 1.8,-3.2 2.7,-4.9 z m 0,-10.8 -2.7,-5 c -1,-1.7 -1.9,-3.3 -3,-4.9 3.1,0.4 6,0.9 8.8,1.5 -0.9,2.8 -1.9,5.6 -3.1,8.4 z m -39.1,5.4 c 1.3,-2.7 2.7,-5.4 4.3,-8.1 1.5,-2.6 3.2,-5.2 4.9,-7.8 3,-0.2 6,-0.3 9.1,-0.3 3.2,0 6.2,0.1 9.1,0.3 1.8,2.6 3.4,5.2 4.9,7.8 1.6,2.7 3,5.4 4.3,8.1 -1.3,2.7 -2.7,5.4 -4.3,8.1 -1.5,2.6 -3.2,5.2 -4.9,7.8 -3,0.2 -6,0.3 -9.1,0.3 -3.2,0 -6.2,-0.1 -9.1,-0.3 C 53.1,60.8 51.5,58.2 50,55.6 48.4,52.9 47,50.2 45.7,47.5 Z M 40.2,33.8 c 2.8,-0.6 5.7,-1.1 8.8,-1.5 -1,1.6 -2,3.2 -3,4.9 -1,1.7 -1.9,3.3 -2.7,5 C 42,39.3 41,36.5 40.2,33.8 Z M 46,57.9 c 1,1.7 1.9,3.3 3,4.9 -3.1,-0.4 -6,-0.9 -8.8,-1.5 0.9,-2.7 1.9,-5.5 3.1,-8.3 0.8,1.6 1.7,3.3 2.7,4.9 z m 12.4,10.3 c 1.8,0.1 3.7,0.1 5.6,0.1 1.9,0 3.8,0 5.6,-0.1 -1.8,2.4 -3.7,4.6 -5.6,6.7 -1.9,-2.1 -3.8,-4.3 -5.6,-6.7 z M 64,81.7 c 7.3,7.1 14.5,11.3 20.3,11.3 1.9,0 3.7,-0.4 5.2,-1.3 5.2,-3 7.1,-10.5 5.3,-21.2 -0.3,-1.9 -0.7,-3.8 -1.2,-5.8 2,-0.6 3.8,-1.2 5.6,-1.8 10.1,-3.9 15.7,-9.3 15.7,-15.2 0,-6 -5.6,-11.4 -15.7,-15.2 -1.8,-0.7 -3.6,-1.3 -5.6,-1.8 0.5,-2 0.9,-3.9 1.2,-5.8 C 96.5,14 94.6,6.4 89.4,3.4 87.9,2.5 86.1,2.1 84.2,2.1 78.5,2.1 71.2,6.3 63.9,13.4 56.7,6.3 49.5,2.1 43.7,2.1 c -1.9,0 -3.7,0.4 -5.2,1.3 -5.2,3 -7.1,10.5 -5.3,21.2 0.3,1.9 0.7,3.8 1.2,5.8 -2,0.6 -3.8,1.2 -5.6,1.8 -10.1,3.9 -15.7,9.3 -15.7,15.2 0,6 5.6,11.4 15.7,15.2 1.8,0.7 3.6,1.3 5.6,1.8 -0.5,2 -0.9,3.9 -1.2,5.8 -1.7,10.7 0.2,18.3 5.3,21.2 1.5,0.9 3.3,1.3 5.2,1.3 5.8,0.2 13,-4 20.3,-11 z m 9.3,-34.2 a 9.3000002,9.3000002 0 0 1 -9.3,9.3 9.3000002,9.3000002 0 0 1 -9.3,-9.3 9.3000002,9.3000002 0 0 1 9.3,-9.3 9.3000002,9.3000002 0 0 1 9.3,9.3 z" />
    <path
       id="path18"
       d="m 111.1,122.6 c -0.2,0.1 -0.3,0.2 -0.3,0.2 -0.8,0.6 -1.6,0.7 -2.5,0.4 -0.9,-0.4 -1,-1.2 -1.1,-2 v -11.4 c 0,-0.2 0,0.2 0.1,-0.8 h 3.8 v -3 h -4 v -5 h -3 v 5.4 h -2.6 c -0.2,0 -0.5,0.2 -0.5,0.4 -0.1,0.7 0,1.2 0,2.2 h 3.2 v 12.8 c 0,1.6 0.4,3 1.8,3.8 1.5,0.9 4.4,0.7 5.7,-0.4 0.2,-0.1 0.3,-0.5 0.3,-0.6 -0.3,-0.6 -0.6,-1.3 -0.9,-2 z M 90.3,109 c 2.6,-0.8 5,-0.3 6.8,1.9 l 0.3,0.2 c 0.7,-0.6 1.3,-1.2 2.1,-1.9 -0.3,-0.3 -0.4,-0.5 -0.6,-0.8 -2.9,-3.1 -8.6,-3.5 -12.1,-1 -4.9,3.6 -4.8,10.6 -2.4,14.3 2.3,3.5 5.6,4.7 9.5,4.2 2.3,-0.3 4.2,-1.4 5.7,-3.3 -0.7,-0.6 -1.4,-1.2 -2.1,-1.9 -0.2,0.2 -0.3,0.3 -0.4,0.5 -2.7,3 -7.2,2.7 -9.6,-0.5 -1.4,-1.9 -1.7,-4.1 -1.3,-6.3 0.2,-2.5 1.5,-4.5 4.1,-5.4 z m -15.6,9.9 c -0.1,0.3 0,0.6 0,0.9 0,2.1 -0.5,2.8 -2.5,3.6 -1.4,0.5 -2.9,0.7 -4.4,0.2 -1.7,-0.5 -2.9,-2 -2.9,-3.7 -0.1,-1.7 1,-3.4 2.7,-3.9 2.3,-0.8 4.4,-0.3 6.3,1.1 0.6,0.5 1,1 0.8,1.8 z m -1.4,-12.6 c -1.5,-0.3 -3.1,-0.4 -4.6,-0.3 -2.4,0.2 -4.5,1.3 -6.2,3.1 0.5,0.7 0.9,1.4 1.5,2.2 0.2,-0.2 0.4,-0.4 0.6,-0.5 1.6,-1.5 3.5,-2.3 5.8,-2.1 1.8,0.1 3.5,0.7 4,2.5 0.4,1.4 0.3,2.9 0.4,4.4 -0.3,0 -0.4,-0.1 -0.5,-0.2 -2.4,-2 -5.1,-2.4 -8,-1.7 -2.7,0.7 -4.4,2.8 -4.6,5.5 -0.2,3.1 1.2,5.4 3.9,6.5 1.7,0.7 3.6,0.7 5.4,0.3 1.4,-0.3 2,-1.1 4,-2.2 v 1.3 h 2.8 c 0,-4 0.1,-8.9 0,-13.5 0,-2.9 -1.7,-4.7 -4.5,-5.3 z M 42.6,115 c -0.3,-3 2.7,-6.2 6,-6.2 3.8,-0.1 6.2,2.2 6.3,6.2 z m 15.1,-1.6 c -1.6,-7 -8,-8.8 -12.9,-6.6 -3.8,1.7 -5.5,5 -5.6,9.1 -0.1,3.1 0.8,5.9 3.2,8 2.7,2.4 6,2.7 9.4,2.1 1.9,-0.4 3.6,-1.3 4.9,-2.7 -0.5,-0.7 -1,-1.4 -1.5,-2 -2.8,2.4 -5.9,3.2 -9.3,1.6 -2.2,-1.1 -3.3,-3.8 -3.5,-5.8 h 15.5 v -1.3 c 0.1,-0.9 0,-1.7 -0.2,-2.4 z M 19,112.1 v -9.9 h 1.1 c 2.3,0 4.7,-0.1 7,0.1 2.7,0.1 4.6,2.2 4.6,4.9 0,2.7 -2.2,4.8 -4.9,4.9 -2.4,0.1 -4.8,0 -7.8,0 z m 14.6,0.2 c 2.2,-2.7 2.3,-5.7 1.1,-8.7 -1.2,-3 -3.7,-4.4 -6.8,-4.5 -3.7,-0.1 -7.5,0 -11.2,0 H 16 V 125 h 3 v -9.8 h 4.7 c 0.6,0 1.1,0.2 1.4,0.7 l 6,9.3 c 0.1,0.2 0.4,0.5 0.6,0.5 h 3.9 c -2.4,-3.7 -4.7,-7.2 -7.1,-10.8 2.1,-0.3 3.9,-1 5.1,-2.6 z"
       style="fill:#ffffff" />
  </g>
</svg>
