<?xml version="1.0" encoding="UTF-8" standalone="no"?>
<svg
   xmlns:dc="http://purl.org/dc/elements/1.1/"
   xmlns:cc="http://creativecommons.org/ns#"
   xmlns:rdf="http://www.w3.org/1999/02/22-rdf-syntax-ns#"
   xmlns:svg="http://www.w3.org/2000/svg"
   xmlns="http://www.w3.org/2000/svg"
   xmlns:sodipodi="http://sodipodi.sourceforge.net/DTD/sodipodi-0.dtd"
   xmlns:inkscape="http://www.inkscape.org/namespaces/inkscape"
   id="slack"
   viewBox="0 0 128 128"
   version="1.1"
   sodipodi:docname="slack-original-wordmark.svg"
   inkscape:version="0.92.3 (2405546, 2018-03-11)">
  <metadata
     id="metadata38">
    <rdf:RDF>
      <cc:Work
         rdf:about="">
        <dc:format>image/svg+xml</dc:format>
        <dc:type
           rdf:resource="http://purl.org/dc/dcmitype/StillImage" />
      </cc:Work>
    </rdf:RDF>
  </metadata>
  <sodipodi:namedview
     pagecolor="#ffffff"
     bordercolor="#666666"
     borderopacity="1"
     objecttolerance="10"
     gridtolerance="10"
     guidetolerance="10"
     inkscape:pageopacity="0"
     inkscape:pageshadow="2"
     inkscape:window-width="1920"
     inkscape:window-height="1017"
     id="namedview36"
     showgrid="false"
     inkscape:zoom="1.84375"
     inkscape:cx="-23.400765"
     inkscape:cy="64"
     inkscape:window-x="-8"
     inkscape:window-y="-8"
     inkscape:window-maximized="1"
     inkscape:current-layer="original-wordmark" />
  <defs
     id="defs4">
    <style
       id="style2">.cls-1{fill:#ecb32d;}.cls-2{fill:#63c1a0;}.cls-3{fill:#e01a59;}.cls-4{fill:#331433;}.cls-5{fill:#d62027;}.cls-6{fill:#89d3df;}.cls-7{fill:#258b74;}.cls-8{fill:#819c3c;}.cls-9{fill:#ffffff;}</style>
  </defs>
  <title
     id="title6">Artboard 10</title>
  <g
     id="original-wordmark">
    <path
       class="cls-1"
       d="m 75.214719,14.83704 a 7.0229201,7.0229201 0 1 0 -13.365,4.32 l 18.1575,55.8225 a 6.9975,6.9975 0 0 0 8.5275,4.32 6.885,6.885 0 0 0 4.77,-8.6625 c 0,-0.1125 -18.09,-55.8 -18.09,-55.8 z"
       id="path8"
       inkscape:connector-curvature="0"
       style="fill:#ecb32d;stroke-width:2.25" />
    <path
       class="cls-2"
       d="M 47.11222,23.927039 A 7.0229207,7.0229207 0 1 0 33.747219,28.24704 l 18.1575,55.89 a 6.9975,6.9975 0 0 0 8.5275,4.32 6.885,6.885 0 0 0 4.77,-8.6625 c 0,-0.1575 -18.089999,-55.867501 -18.089999,-55.867501 z"
       id="path10"
       inkscape:connector-curvature="0"
       style="fill:#63c1a0;stroke-width:2.25" />
    <path
       class="cls-3"
       d="m 98.074719,61.00704 a 7.0229201,7.0229201 0 1 0 -4.32,-13.365 l -55.8675,18.225 a 6.9975,6.9975 0 0 0 -4.32,8.5275 6.885,6.885 0 0 0 8.595001,4.77 c 0.18,0 55.912499,-18.1575 55.912499,-18.1575 z"
       id="path12"
       inkscape:connector-curvature="0"
       style="fill:#e01a59;stroke-width:2.25" />
    <path
       class="cls-4"
       d="m 49.497219,76.84704 13.365,-4.32 c -1.17,-3.6225 -2.7225,-8.325 -4.32,-13.365 l -13.364999,4.32 z"
       id="path14"
       inkscape:connector-curvature="0"
       style="fill:#331433;stroke-width:2.25" />
    <path
       class="cls-5"
       d="m 77.667219,67.66704 13.365,-4.32 c -1.17,-3.6225 -2.7225,-8.325 -4.32,-13.365 l -13.365,4.32 z"
       id="path16"
       inkscape:connector-curvature="0"
       style="fill:#d62027;stroke-width:2.25" />
    <path
       class="cls-6"
       d="m 88.917219,32.92704 a 7.0229203,7.0229203 0 1 0 -4.32,-13.365 l -55.935,18.135 a 6.9975,6.9975 0 0 0 -4.32,8.5275 6.885,6.885 0 0 0 8.82,4.77 c 0,0 55.755,-18.0675 55.755,-18.0675 z"
       id="path18"
       inkscape:connector-curvature="0"
       style="fill:#89d3df;stroke-width:2.25" />
    <path
       class="cls-7"
       d="m 40.407219,48.67704 13.365,-4.32 c -1.62,-5.04 -3.1725,-9.765 -4.32,-13.365 l -13.3875,4.32 z"
       id="path20"
       inkscape:connector-curvature="0"
       style="fill:#258b74;stroke-width:2.25" />
    <path
       class="cls-8"
       d="m 68.487219,39.56454 13.365,-4.32 c -1.62,-5.04 -3.1725,-9.765001 -4.32,-13.365001 l -13.365,4.32 z"
       id="path22"
       inkscape:connector-curvature="0"
       style="fill:#819c3c;stroke-width:2.25" />
    <path
       class="cls-9"
       d="m 35.135593,106.69305 c 1.09,0.49 1.18,0.83 0.32,2.47 -0.86,1.64 -1.09,1.82 -2.18,1.35 a 12.46,12.46 0 0 0 -4.22,-1 c -1.84,0 -3,0.66 -3,1.67 0,3.3 10.51,1.52 10.51,8.53 0,3.53 -3,5.89 -7.58,5.89 a 18,18 0 0 1 -7.38,-1.84 c -1,-0.52 -1.09,-0.8 -0.2,-2.5 0.75,-1.46 1,-1.64 2.1,-1.18 a 15.67,15.67 0 0 0 5.4,1.35 c 1.67,0 2.78,-0.69 2.78,-1.67 0,-3.19 -10.71,-1.67 -10.71,-8.47 0,-3.62 3,-6 7.52,-6 a 17.23,17.23 0 0 1 6.64,1.4 z"
       id="path24"
       style="fill:#ffffff"
       inkscape:connector-curvature="0" />
    <path
       class="cls-9"
       d="m 43.635593,98.373051 v 26.179999 a 0.94,0.94 0 0 1 -1,0.8 h -2.76 a 0.94,0.94 0 0 1 -1,-0.8 V 98.373051 c 0,-1.29 0.37,-1.41 2.38,-1.41 2.3,0.02 2.38,0.14 2.38,1.41 z"
       id="path26"
       style="fill:#ffffff"
       inkscape:connector-curvature="0" />
    <path
       class="cls-9"
       d="m 63.215593,113.07305 v 11.28 a 1,1 0 0 1 -1,1 h -2.73 a 1,1 0 0 1 -1,-1.09 v -1.21 a 7.68,7.68 0 0 1 -5.71,2.5 c -4.11,0 -6.86,-2.38 -6.86,-5.91 0,-3.76 3.1,-6.32 7.78,-6.32 a 12.41,12.41 0 0 1 4.71,0.86 v -1.28 c 0,-2.07 -1.64,-3.3 -4.42,-3.3 a 8.86,8.86 0 0 0 -4.16,1.26 c -1,0.55 -1.21,0.52 -2.27,-1.06 -1.06,-1.58 -1,-1.87 0,-2.53 a 13.34,13.34 0 0 1 6.89,-2 c 5.39,-0.04 8.77,2.86 8.77,7.8 z m -12.69,6.54 c 0,1.35 1.15,2.24 2.84,2.24 a 6,6 0 0 0 5.05,-2.7 v -1.75 a 10.35,10.35 0 0 0 -3.62,-0.66 c -2.57,0 -4.27,1.24 -4.27,2.87 z"
       id="path28"
       style="fill:#ffffff"
       inkscape:connector-curvature="0" />
    <path
       class="cls-9"
       d="m 81.885593,106.72305 c 1,0.57 1,0.89 -0.06,2.58 -1.06,1.69 -1.21,1.69 -2.33,1.15 a 8,8 0 0 0 -3.27,-0.8 5.4,5.4 0 0 0 -5.74,5.71 c 0,3.56 2.3,6 5.74,6 a 8.35,8.35 0 0 0 3.68,-1 c 1,-0.57 1.21,-0.55 2.27,1 1.06,1.55 0.95,1.78 0.09,2.38 a 11.64,11.64 0 0 1 -6.13,1.85 c -6.37,0 -10.65,-4.08 -10.65,-10.22 0,-6.14 4.28,-10.13 10.71,-10.13 a 12.45,12.45 0 0 1 5.69,1.48 z"
       id="path30"
       style="fill:#ffffff"
       inkscape:connector-curvature="0" />
    <path
       class="cls-9"
       d="m 102.72559,122.89305 c 0.8,1 0.49,1.38 -1.52,2.1 -2.01,0.72 -2.33,0.69 -3,-0.23 l -5.709997,-7.61 -2.56,2.47 v 4.94 a 0.94,0.94 0 0 1 -1,0.8 h -2.8 a 0.94,0.94 0 0 1 -1,-0.8 V 98.373051 c 0,-1.29 0.37,-1.41 2.38,-1.41 2.33,0 2.38,0.17 2.38,1.41 v 14.869999 l 7.809997,-7.49 c 0.86,-0.8 1.35,-0.75 2.87,0.26 1.69,1.09 1.81,1.41 1,2.18 l -5.799997,5.68 z"
       id="path32"
       style="fill:#ffffff"
       inkscape:connector-curvature="0" />
  </g>
</svg>
