<?xml version="1.0" encoding="UTF-8" standalone="no"?>
<svg
   xmlns:dc="http://purl.org/dc/elements/1.1/"
   xmlns:cc="http://creativecommons.org/ns#"
   xmlns:rdf="http://www.w3.org/1999/02/22-rdf-syntax-ns#"
   xmlns:svg="http://www.w3.org/2000/svg"
   xmlns="http://www.w3.org/2000/svg"
   xmlns:sodipodi="http://sodipodi.sourceforge.net/DTD/sodipodi-0.dtd"
   xmlns:inkscape="http://www.inkscape.org/namespaces/inkscape"
   viewBox="0 0 128 128"
   version="1.1"
   id="svg38"
   sodipodi:docname="visualstudio-plain-wordmark.svg"
   inkscape:version="0.92.3 (2405546, 2018-03-11)">
  <metadata
     id="metadata42">
    <rdf:RDF>
      <cc:Work
         rdf:about="">
        <dc:format>image/svg+xml</dc:format>
        <dc:type
           rdf:resource="http://purl.org/dc/dcmitype/StillImage" />
      </cc:Work>
    </rdf:RDF>
  </metadata>
  <sodipodi:namedview
     pagecolor="#ffffff"
     bordercolor="#666666"
     borderopacity="1"
     objecttolerance="10"
     gridtolerance="10"
     guidetolerance="10"
     inkscape:pageopacity="0"
     inkscape:pageshadow="2"
     inkscape:window-width="1920"
     inkscape:window-height="1017"
     id="namedview40"
     showgrid="false"
     inkscape:zoom="1.84375"
     inkscape:cx="-28.474576"
     inkscape:cy="64"
     inkscape:window-x="-8"
     inkscape:window-y="-8"
     inkscape:window-maximized="1"
     inkscape:current-layer="svg38" />
  <defs
     id="defs4">
    <style
       id="style2">
      .a{fill:#ffffff;}.b{isolation:isolate;}.c{fill:#68217a;}
    </style>
  </defs>
  <title
     id="title6">
    visualstudio
  </title>
  <path
     class="c"
     d="m 84.798051,11.317289 21.239999,8.559999 v 68.719999 l -21.439999,8.56 -34.2,-33.88 -21.6,16.76 -8.48,-4.28 v -43.04 l 8.56,-3.999999 21.52,16.839999 z m -56,30.199998 v 26.08 l 12.96,-13.36 z m 33.6,12.72 22.2,17.52 v -34.96 z"
     id="path8"
     inkscape:connector-curvature="0"
     style="fill:#68217a;stroke-width:4" />
  <g
     class="b"
     id="g22"
     style="isolation:isolate;fill:#ffffff"
     transform="translate(-15.728814,52.610169)">
    <path
       class="a"
       d="m 40.53,57.52 -4.79,12.94 h -1.67 l -4.7,-12.94 h 1.69 l 3.58,10.26 a 6.13,6.13 0 0 1 0.26,1.15 5.6,5.6 0 0 1 0.3,-1.16 l 3.7,-10.25 z m 1.87,1.35 v 0"
       id="path10"
       style="fill:#ffffff"
       inkscape:connector-curvature="0" />
    <path
       class="a"
       d="m 42.4,58.87 a 0.94,0.94 0 0 1 -0.68,-0.27 0.91,0.91 0 0 1 -0.28,-0.69 0.95,0.95 0 0 1 1,-1 1,1 0 0 1 0.69,0.28 1,1 0 0 1 0,1.37 1,1 0 0 1 -0.73,0.31 z m 0.72,11.59 h -1.48 v -9.24 h 1.48 z"
       id="path12"
       style="fill:#ffffff"
       inkscape:connector-curvature="0" />
    <path
       class="a"
       d="m 45,70.13 v -1.59 a 4.38,4.38 0 0 0 2.66,0.89 q 2,0 2,-1.3 A 1.12,1.12 0 0 0 49.49,67.5 1.65,1.65 0 0 0 49,67 3.42,3.42 0 0 0 48.33,66.64 L 47.5,66.31 a 10.58,10.58 0 0 1 -1.08,-0.49 3.27,3.27 0 0 1 -0.78,-0.56 2.08,2.08 0 0 1 -0.47,-0.71 2.51,2.51 0 0 1 -0.16,-0.93 2.21,2.21 0 0 1 0.3,-1.15 2.65,2.65 0 0 1 0.79,-0.84 3.73,3.73 0 0 1 1.13,-0.51 5,5 0 0 1 1.33,-0.12 5.31,5.31 0 0 1 2.15,0.41 v 1.5 a 4.18,4.18 0 0 0 -2.35,-0.67 2.73,2.73 0 0 0 -0.75,0.09 1.83,1.83 0 0 0 -0.57,0.27 1.24,1.24 0 0 0 -0.37,0.41 1.09,1.09 0 0 0 -0.13,0.53 1.27,1.27 0 0 0 0.13,0.61 1.34,1.34 0 0 0 0.38,0.43 3,3 0 0 0 0.61,0.34 l 0.82,0.33 a 11.32,11.32 0 0 1 1.1,0.48 3.81,3.81 0 0 1 0.83,0.56 2.21,2.21 0 0 1 0.53,0.72 2.31,2.31 0 0 1 0.18,1 2.27,2.27 0 0 1 -0.3,1.19 A 2.59,2.59 0 0 1 50,70 3.7,3.7 0 0 1 48.84,70.5 5.76,5.76 0 0 1 47.46,70.66 5.22,5.22 0 0 1 45,70.13 Z"
       id="path14"
       style="fill:#ffffff"
       inkscape:connector-curvature="0" />
    <path
       class="a"
       d="M 60.33,70.46 H 58.84 V 69 A 3,3 0 0 1 56,70.68 q -3.3,0 -3.3,-3.94 v -5.52 h 1.47 v 5.29 q 0,2.92 2.24,2.92 a 2.27,2.27 0 0 0 1.78,-0.8 3.06,3.06 0 0 0 0.7,-2.09 v -5.32 h 1.48 z"
       id="path16"
       style="fill:#ffffff"
       inkscape:connector-curvature="0" />
    <path
       class="a"
       d="M 69.38,70.46 H 67.9 V 69 A 3.1,3.1 0 0 1 65,70.68 3,3 0 0 1 62.84,69.95 2.53,2.53 0 0 1 62.07,68 q 0,-2.59 3.05,-3 l 2.77,-0.39 q 0,-2.36 -1.9,-2.36 a 4.55,4.55 0 0 0 -3,1.14 V 61.87 A 5.72,5.72 0 0 1 66.12,61 q 3.26,0 3.26,3.45 z m -1.48,-4.68 -2.23,0.31 a 3.61,3.61 0 0 0 -1.55,0.51 1.47,1.47 0 0 0 -0.52,1.3 1.41,1.41 0 0 0 0.47,1.1 1.86,1.86 0 0 0 1.29,0.43 2.38,2.38 0 0 0 1.82,-0.77 2.76,2.76 0 0 0 0.72,-2 z"
       id="path18"
       style="fill:#ffffff"
       inkscape:connector-curvature="0" />
    <path
       class="a"
       d="M 73.09,70.46 H 71.61 V 56.78 h 1.48 z"
       id="path20"
       style="fill:#ffffff"
       inkscape:connector-curvature="0" />
  </g>
  <g
     class="b"
     id="g36"
     style="isolation:isolate;fill:#ffffff"
     transform="translate(-13.559322,52.610169)">
    <path
       class="a"
       d="m 77.72,69.94 v -1.79 a 3.43,3.43 0 0 0 0.73,0.49 5.9,5.9 0 0 0 0.9,0.37 7.25,7.25 0 0 0 1,0.23 5.3,5.3 0 0 0 0.88,0.08 3.46,3.46 0 0 0 2.09,-0.52 1.95,1.95 0 0 0 0.46,-2.41 2.58,2.58 0 0 0 -0.64,-0.71 6.3,6.3 0 0 0 -1,-0.61 l -1.2,-0.62 q -0.68,-0.34 -1.26,-0.7 a 5.5,5.5 0 0 1 -1,-0.78 A 3.26,3.26 0 0 1 78,62 a 3.28,3.28 0 0 1 0.14,-2.8 3.34,3.34 0 0 1 1,-1.08 4.63,4.63 0 0 1 1.44,-0.63 6.58,6.58 0 0 1 1.65,-0.21 6.3,6.3 0 0 1 2.79,0.46 v 1.71 a 5.06,5.06 0 0 0 -2.94,-0.79 4.87,4.87 0 0 0 -1,0.1 2.8,2.8 0 0 0 -0.88,0.34 2,2 0 0 0 -0.63,0.6 1.61,1.61 0 0 0 -0.24,0.9 1.87,1.87 0 0 0 0.19,0.86 2.1,2.1 0 0 0 0.55,0.66 5.37,5.37 0 0 0 0.88,0.58 l 1.2,0.61 q 0.69,0.34 1.32,0.72 a 6.05,6.05 0 0 1 1.09,0.84 3.75,3.75 0 0 1 0.74,1 2.85,2.85 0 0 1 0.28,1.28 3.26,3.26 0 0 1 -0.37,1.62 3.07,3.07 0 0 1 -1,1.08 4.42,4.42 0 0 1 -1.47,0.6 8,8 0 0 1 -1.75,0.19 7.25,7.25 0 0 1 -0.76,0 c -0.3,0 -0.61,-0.08 -0.92,-0.14 a 7.65,7.65 0 0 1 -0.89,-0.23 2.77,2.77 0 0 1 -0.7,-0.33 z m 13.64,0.43 v 0"
       id="path24"
       style="fill:#ffffff"
       inkscape:connector-curvature="0" />
    <path
       class="a"
       d="m 91.36,70.37 a 2.86,2.86 0 0 1 -1.38,0.29 q -2.43,0 -2.43,-2.71 V 62.48 H 86 v -1.26 h 1.59 V 59 L 89,58.48 v 2.73 h 2.33 v 1.26 H 89 v 5.21 a 2.16,2.16 0 0 0 0.34,1.32 1.26,1.26 0 0 0 1,0.4 1.55,1.55 0 0 0 1,-0.31 z"
       id="path26"
       style="fill:#ffffff"
       inkscape:connector-curvature="0" />
    <path
       class="a"
       d="M 100.53,70.46 H 99.05 V 69 a 3,3 0 0 1 -2.85,1.68 q -3.3,0 -3.3,-3.94 v -5.52 h 1.47 v 5.29 q 0,2.92 2.24,2.92 a 2.27,2.27 0 0 0 1.78,-0.8 3.06,3.06 0 0 0 0.7,-2.09 v -5.32 h 1.48 v 9.24 z"
       id="path28"
       style="fill:#ffffff"
       inkscape:connector-curvature="0" />
    <path
       class="a"
       d="m 111.13,70.46 h -1.48 v -1.57 a 3.42,3.42 0 0 1 -3.18,1.79 3.45,3.45 0 0 1 -2.79,-1.24 5.1,5.1 0 0 1 -1,-3.38 5.54,5.54 0 0 1 1.16,-3.67 3.81,3.81 0 0 1 3,-1.39 3,3 0 0 1 2.77,1.5 v -5.72 h 1.48 z m -1.48,-4.18 v -1.36 a 2.65,2.65 0 0 0 -0.74,-1.9 2.48,2.48 0 0 0 -1.88,-0.78 2.56,2.56 0 0 0 -2.13,1 4.35,4.35 0 0 0 -0.78,2.74 3.91,3.91 0 0 0 0.74,2.52 2.43,2.43 0 0 0 2,0.92 2.53,2.53 0 0 0 2,-0.89 3.33,3.33 0 0 0 0.79,-2.25 z"
       id="path30"
       style="fill:#ffffff"
       inkscape:connector-curvature="0" />
    <path
       class="a"
       d="m 114.61,58.87 a 0.93,0.93 0 0 1 -0.68,-0.27 0.91,0.91 0 0 1 -0.28,-0.69 1,1 0 0 1 1,-1 1,1 0 0 1 0.69,0.28 1,1 0 0 1 0,1.37 1,1 0 0 1 -0.73,0.31 z m 0.72,11.59 h -1.48 v -9.24 h 1.48 z"
       id="path32"
       style="fill:#ffffff"
       inkscape:connector-curvature="0" />
    <path
       class="a"
       d="m 121.91,70.68 a 4.29,4.29 0 0 1 -3.27,-1.3 4.8,4.8 0 0 1 -1.22,-3.43 5,5 0 0 1 1.27,-3.64 4.58,4.58 0 0 1 3.44,-1.31 4.14,4.14 0 0 1 3.23,1.27 5,5 0 0 1 1.16,3.53 5,5 0 0 1 -1.25,3.54 4.38,4.38 0 0 1 -3.36,1.34 z m 0.11,-8.43 a 2.82,2.82 0 0 0 -2.26,1 4,4 0 0 0 -0.83,2.68 3.77,3.77 0 0 0 0.84,2.59 2.85,2.85 0 0 0 2.25,0.95 2.71,2.71 0 0 0 2.21,-0.93 A 4,4 0 0 0 125,65.9 4.11,4.11 0 0 0 124.23,63.23 2.69,2.69 0 0 0 122,62.25 Z"
       id="path34"
       style="fill:#ffffff"
       inkscape:connector-curvature="0" />
  </g>
</svg>
