<?xml version="1.0" encoding="UTF-8" standalone="no"?>
<svg
   xmlns:dc="http://purl.org/dc/elements/1.1/"
   xmlns:cc="http://creativecommons.org/ns#"
   xmlns:rdf="http://www.w3.org/1999/02/22-rdf-syntax-ns#"
   xmlns:svg="http://www.w3.org/2000/svg"
   xmlns="http://www.w3.org/2000/svg"
   xmlns:sodipodi="http://sodipodi.sourceforge.net/DTD/sodipodi-0.dtd"
   xmlns:inkscape="http://www.inkscape.org/namespaces/inkscape"
   id="angularjs"
   viewBox="0 0 128 128"
   version="1.1"
   sodipodi:docname="webpack-original-wordmark.svg"
   inkscape:version="0.92.3 (2405546, 2018-03-11)">
  <metadata
     id="metadata18">
    <rdf:RDF>
      <cc:Work
         rdf:about="">
        <dc:format>image/svg+xml</dc:format>
        <dc:type
           rdf:resource="http://purl.org/dc/dcmitype/StillImage" />
      </cc:Work>
    </rdf:RDF>
  </metadata>
  <sodipodi:namedview
     pagecolor="#ffffff"
     bordercolor="#666666"
     borderopacity="1"
     objecttolerance="10"
     gridtolerance="10"
     guidetolerance="10"
     inkscape:pageopacity="0"
     inkscape:pageshadow="2"
     inkscape:window-width="1920"
     inkscape:window-height="1017"
     id="namedview16"
     showgrid="false"
     inkscape:zoom="1.84375"
     inkscape:cx="64"
     inkscape:cy="64"
     inkscape:window-x="-8"
     inkscape:window-y="-8"
     inkscape:window-maximized="1"
     inkscape:current-layer="original-wordmark" />
  <defs
     id="defs4">
    <style
       id="style2">.text{fill:#ffffff}.cls-1{fill:#8ed6fb;}.cls-2{fill:#1c78c0;}</style>
  </defs>
  <title
     id="title6">Artboard 14</title>
  <g
     id="original-wordmark">
    <path
       class="cls-1"
       d="m 102.36407,73.83356 -36.810003,20.82 v -16.23 l 22.95,-12.63 13.890003,8.01 z m 2.52,-2.28 V 27.993559 L 91.414067,35.76356 v 27.99 l 13.560003,7.8 z m -79.380002,2.28 36.809999,20.82 v -16.23 l -22.949999,-12.6 z m -2.52,-2.28 V 27.993559 l 13.47,7.770001 v 27.99 z m 1.59,-46.380001 L 62.344067,3.8135588 V 19.473559 L 38.134068,32.79356 h -0.18 z m 78.750002,0 L 65.554067,3.8135588 V 19.473559 l 24.18,13.290001 0.24,0.21 13.380003,-7.710001 z"
       id="path8"
       inkscape:connector-curvature="0"
       style="fill:#8ed6fb;stroke-width:3" />
    <path
       class="cls-2"
       d="m 62.314067,74.73356 -22.619999,-12.45 v -24.66 l 22.649999,13.08 z m 3.24,0 22.65,-12.45 v -24.66 l -22.65,13.08 z m -24.329999,-39.96 22.709999,-12.480001 22.74,12.480001 -22.74,13.2 z"
       id="path10"
       inkscape:connector-curvature="0"
       style="fill:#1c78c0;stroke-width:3" />
    <path
       d="m 33.423559,115.55932 h 3.32 l 3.38,-11.27 h -3.23 l -2,8 -2.14,-8 h -2.8 l -2.16,8 -2,-8 h -3.21 l 3.36,11.27 h 3.32 l 2.09,-7.22 z m 6.87,-5.6 a 5.62,5.62 0 0 0 5.93,5.88 5.35,5.35 0 0 0 4.74,-2.48 l -2,-1.49 a 3.29,3.29 0 0 1 -2.74,1.38 2.74,2.74 0 0 1 -2.93,-2.59 h 7.94 c 0,-0.22 0,-0.43 0,-0.65 0,-3.68 -2,-6 -5.47,-6 -3.21,0 -5.52,2.54 -5.52,5.95 z m 3.13,-1.23 a 2.39,2.39 0 0 1 2.39,-2.3 2.3,2.3 0 0 1 2.41,2.28 z m 9,6.83 h 2.8 v -1.18 a 4.39,4.39 0 0 0 3.34,1.44 c 3.23,0 5.52,-2.43 5.52,-5.9 0,-3.47 -2.11,-5.92 -5.35,-5.92 a 4.24,4.24 0 0 0 -3.34,1.46 v -5.499998 h -3 v 15.599998 0 z m 2.89,-5.6 c 0,-2.11 1.25,-3.32 2.89,-3.32 1.64,0 2.89,1.36 2.89,3.32 0,1.96 -1.21,3.25 -2.89,3.25 a 3,3 0 0 1 -2.89,-3.25 z m 9.92,9.6 h 3 v -5.2 a 4.3,4.3 0 0 0 3.34,1.44 c 3.23,0 5.35,-2.43 5.35,-5.92 0,-3.49 -2.28,-5.9 -5.52,-5.9 a 4.32,4.32 0 0 0 -3.34,1.46 v -1.17 h -2.8 v 15.29 z m 2.89,-9.7 a 3,3 0 0 1 2.89,-3.25 c 1.68,0 2.89,1.25 2.89,3.25 0,2 -1.16,3.32 -2.89,3.32 -1.73,0 -2.89,-1.21 -2.89,-3.32 z m 9.31,2.18 c 0,2.37 1.94,3.77 4.22,3.77 a 3.52,3.52 0 0 0 2.74,-1 l 0.19,0.73 h 2.63 v -7.13 c 0,-2.52 -1.08,-4.42 -4.7,-4.42 a 8.41,8.41 0 0 0 -4.44,1.34 l 1.12,2 a 6.65,6.65 0 0 1 3,-0.8 c 1.32,0 2,0.67 2,1.66 v 0.73 a 4.57,4.57 0 0 0 -2.38,-0.59 c -2.63,0 -4.38,1.5 -4.38,3.72 z m 3,-0.09 c 0,-0.93 0.8,-1.57 1.94,-1.57 1.14,0 2,0.58 2,1.57 0,0.99 -0.88,1.61 -2,1.61 -1.12,0 -2,-0.62 -2,-1.55 z m 14,1.23 a 3.29,3.29 0 0 1 -0.1,-6.57 3.83,3.83 0 0 1 2.63,1.08 l 0.84,-2.5 a 5.74,5.74 0 0 0 -3.56,-1.21 5.81,5.81 0 0 0 -6,5.95 5.73,5.73 0 0 0 6,5.88 5.67,5.67 0 0 0 3.57,-1.19 l -0.8,-2.43 a 4.12,4.12 0 0 1 -2.55,1 z m 4.47,2.38 h 3.000001 v -5.83 l 3.75,5.83 h 3.49 l -4.27,-6.17 4,-5.11 h -3.34 l -3.62,4.74 v -9.059998 h -3.000001 v 15.599998 z"
       id="path12"
       inkscape:connector-curvature="0"
       style="fill:#ffffff" />
  </g>
</svg>
